<svg width="18" height="20" viewBox="0 0 18 20" fill="none" xmlns="http://www.w3.org/2000/svg">
<path d="M5.94643 11.25H4.33929C4.07411 11.25 3.85714 11.0391 3.85714 10.7812V9.21875C3.85714 8.96094 4.07411 8.75 4.33929 8.75H5.94643C6.21161 8.75 6.42857 8.96094 6.42857 9.21875V10.7812C6.42857 11.0391 6.21161 11.25 5.94643 11.25ZM10.2857 10.7812V9.21875C10.2857 8.96094 10.0687 8.75 9.80357 8.75H8.19643C7.93125 8.75 7.71429 8.96094 7.71429 9.21875V10.7812C7.71429 11.0391 7.93125 11.25 8.19643 11.25H9.80357C10.0687 11.25 10.2857 11.0391 10.2857 10.7812ZM14.1429 10.7812V9.21875C14.1429 8.96094 13.9259 8.75 13.6607 8.75H12.0536C11.7884 8.75 11.5714 8.96094 11.5714 9.21875V10.7812C11.5714 11.0391 11.7884 11.25 12.0536 11.25H13.6607C13.9259 11.25 14.1429 11.0391 14.1429 10.7812ZM10.2857 14.5312V12.9688C10.2857 12.7109 10.0687 12.5 9.80357 12.5H8.19643C7.93125 12.5 7.71429 12.7109 7.71429 12.9688V14.5312C7.71429 14.7891 7.93125 15 8.19643 15H9.80357C10.0687 15 10.2857 14.7891 10.2857 14.5312ZM6.42857 14.5312V12.9688C6.42857 12.7109 6.21161 12.5 5.94643 12.5H4.33929C4.07411 12.5 3.85714 12.7109 3.85714 12.9688V14.5312C3.85714 14.7891 4.07411 15 4.33929 15H5.94643C6.21161 15 6.42857 14.7891 6.42857 14.5312ZM14.1429 14.5312V12.9688C14.1429 12.7109 13.9259 12.5 13.6607 12.5H12.0536C11.7884 12.5 11.5714 12.7109 11.5714 12.9688V14.5312C11.5714 14.7891 11.7884 15 12.0536 15H13.6607C13.9259 15 14.1429 14.7891 14.1429 14.5312ZM18 4.375V18.125C18 19.1602 17.1362 20 16.0714 20H1.92857C0.863839 20 0 19.1602 0 18.125V4.375C0 3.33984 0.863839 2.5 1.92857 2.5H3.85714V0.46875C3.85714 0.210938 4.07411 0 4.33929 0H5.94643C6.21161 0 6.42857 0.210938 6.42857 0.46875V2.5H11.5714V0.46875C11.5714 0.210938 11.7884 0 12.0536 0H13.6607C13.9259 0 14.1429 0.210938 14.1429 0.46875V2.5H16.0714C17.1362 2.5 18 3.33984 18 4.375ZM16.0714 17.8906V6.25H1.92857V17.8906C1.92857 18.0195 2.03705 18.125 2.16964 18.125H15.8304C15.9629 18.125 16.0714 18.0195 16.0714 17.8906Z" fill="#737373"/>
</svg>
