<svg xmlns="http://www.w3.org/2000/svg" width="16" height="16" viewBox="0 0 16 16" fill="none">
  <path d="M10.673 8L9 7.67213L10.673 7L11 7.38251L10.673 8Z" fill="black"/>
  <path d="M13.8065 7.43492C13.5646 6.88067 13.388 6.40262 13.3291 6.29177C13.146 5.96615 12.8713 5.98 12.6359 6.02157C12.0081 6.13242 11.7661 6.2502 10.6675 6.56197C10.504 6.61047 10.1966 6.70746 10.0331 6.64511C9.58842 6.48576 9.45108 6.35413 9.23527 6.38184C8.90175 6.42341 8.22162 6.76289 7.48263 7.331C7.25374 7.50421 7.2799 7.71898 7.23412 7.85755C7.22758 7.88526 7.23412 7.91297 7.26682 7.9199C7.26682 7.9199 7.26682 7.9199 7.27336 7.9199C7.378 7.93376 8.55514 8.03768 8.60746 8.04461C8.59438 8.03768 8.5813 8.01689 8.5813 7.99611C8.5813 7.97532 8.58784 7.96147 8.60746 7.95454C8.94099 7.76055 10.1574 7.08159 10.8964 6.77675C11.9035 6.35413 12.1454 6.30563 12.4528 6.27792C12.5313 6.27792 12.6163 6.27792 12.6948 6.27792C12.7536 6.27792 12.806 6.31949 12.8256 6.38184C12.9629 6.81139 13.3684 7.78826 13.5842 8.11389C13.5646 8.15546 13.5188 8.1901 13.473 8.19703C13.4141 8.19703 13.303 8.08618 13.231 8.01689C13.218 8.00304 13.1918 8.00304 13.1722 8.01689C11.9689 8.80671 11.0991 9.14619 10.9748 9.19469C10.9618 9.19469 10.9552 9.19469 10.9421 9.19469L10.3274 8.9522C10.3601 8.91063 10.3863 8.86213 10.4059 8.80671C10.419 8.779 10.4255 8.75128 10.4255 8.72357C10.4255 8.61965 10.3274 8.59886 10.2816 8.59193C10.1181 8.57115 5.71691 7.88526 4.6117 7.76748C4.14084 7.71205 3.69614 7.9684 3.50649 8.2386L4.1343 8.93834C4.14738 8.9522 4.167 8.95913 4.18662 8.9522L4.6771 8.70971C4.6771 8.70971 4.7425 8.93142 4.6771 8.96606C4.27164 9.20162 3.87272 9.41639 3.49341 9.63116C3.343 9.7143 3.343 9.88058 3.29722 10.1092C3.2776 10.2062 3.26452 10.2893 3.26452 10.2893C3.26452 10.2893 4.12122 9.83208 4.6444 9.56881C4.66402 9.56188 4.68364 9.56881 4.69672 9.58267C4.76866 9.6658 4.79481 9.68659 4.84713 9.74202C4.86675 9.7628 4.86675 9.79051 4.84713 9.8113C4.84713 9.8113 4.84059 9.8113 4.83405 9.81823C4.7098 9.88751 4.58554 9.95679 4.48745 10.0191C4.40897 10.0676 4.48745 10.2339 4.48745 10.2339L5.9131 9.52031C5.9131 9.52031 6.00466 9.61038 5.84771 9.7143C5.60574 9.87365 3.35608 11.093 3.15989 11.0999C2.64979 11.1138 1.68845 10.0954 1.34185 9.94293C1.04756 9.8113 0.733658 10.0261 0.302037 10.2893C0.184323 10.3656 0.25626 10.5388 0.25626 10.5388L0.877531 10.2062C0.877531 10.2062 0.956008 10.3032 0.870992 10.3586C0.570165 10.5595 0.132005 10.7605 0.0666081 10.8159C-0.0314875 10.8921 0.00775076 11.2385 0.00775076 11.2385L0.596324 10.9475C0.596324 10.9475 0.629023 10.9406 0.648642 10.9475L1.9108 12.2154C1.98928 12.1946 2.06776 12.1669 2.14623 12.1322L1.09334 10.9475C1.09334 10.9475 1.08026 10.8921 1.09988 10.8713C1.20452 10.8159 1.33531 10.7743 1.51842 10.9198C1.66884 11.0445 2.20509 11.5018 2.72173 11.4533C2.89176 11.4394 2.8983 11.4948 2.8983 11.4948C2.8983 11.4948 2.67595 11.6057 2.4209 11.7581C2.29011 11.8343 2.39474 12.0352 2.39474 12.0352C3.72884 11.4602 5.37031 10.7397 5.5992 10.6288C5.61882 10.6219 5.6319 10.6288 5.65152 10.6288L6.03736 10.9544C6.08968 11.0445 8.82981 9.92908 9.67343 9.47874C9.72575 9.45103 10.1508 9.47874 10.3601 9.47874C10.4582 9.47874 10.4517 9.52031 10.4517 9.52031C10.4517 9.52031 3.59805 12.4163 1.91734 12.347L1.55766 12.5064C1.76693 12.6519 1.71461 12.9082 2.0743 12.7142C2.09392 12.7696 2.12008 12.8181 2.14623 12.8805C2.21817 13.0398 2.21817 13.0398 2.66941 12.8805C3.95773 12.4163 9.73883 10.5873 11.0337 10.0191C11.7661 9.70045 12.7798 9.25704 13.4076 8.84135C14.0289 8.43951 14.1531 8.22474 13.8196 7.44185L13.8065 7.43492ZM8.27394 7.46264C8.19546 7.51806 7.68536 7.42107 7.68536 7.42107C7.68536 7.42107 8.25432 6.8876 8.79057 6.81832C8.95407 6.79753 9.27451 6.92917 9.27451 6.92917C9.27451 6.92917 8.5486 7.24786 8.27394 7.46264ZM9.99388 6.92917L9.26143 7.32407C9.26143 7.32407 9.0914 7.21322 9.28105 7.12316C9.33337 7.10237 9.44454 7.03309 9.52956 6.98459C9.56226 6.96381 9.57534 6.92224 9.55572 6.8876C9.54918 6.87374 9.5361 6.85989 9.52302 6.85296L8.98022 6.62433C9.08486 6.53426 9.22219 6.50655 9.35299 6.54119C9.43147 6.5689 9.75845 6.71439 9.9808 6.81139C10.0135 6.81832 10.0331 6.85296 10.0266 6.88067C10.0266 6.90145 10.0135 6.91531 9.99388 6.92224V6.92917ZM10.1705 8.80671C10.0985 8.91756 9.93502 9.12541 9.68651 9.08384C9.5688 9.06305 4.7098 8.01689 4.69672 8.01689C4.66402 8.00997 4.66402 7.92683 4.72942 7.94068L10.1378 8.7305C10.1378 8.7305 10.1835 8.76514 10.177 8.79285V8.80671H10.1705Z" fill="black"/>
  <path d="M14.0267 7.00667H14.0133C14.0133 7.00667 14.0067 7.00667 14 7.01333L14.0533 7H14.0333L14.0267 7.00667Z" fill="black"/>
  <path d="M15.9876 9.699C15.9409 9.55451 15.5823 8.60091 15.3797 8.24836L14.4443 7C14.3586 7.09247 14.2572 7.17338 14.1481 7.2543C14.1325 7.26585 14.1091 7.27741 14.0857 7.28319C14.0546 7.28897 14.0312 7.29475 14 7.29475L14.5067 8.51999C14.5846 8.71649 14.7561 8.8841 14.912 9.05748C14.9899 9.14417 15.5278 9.73368 15.7304 9.96485C15.7616 9.99953 15.8318 10.0111 15.8785 9.98797C15.8941 9.98219 15.9019 9.97641 15.9097 9.96485C15.9876 9.88972 16.011 9.79147 15.9954 9.69322L15.9876 9.699ZM15.8084 9.8666V9.87816L15.785 9.8666C15.785 9.86082 15.0211 9.03436 14.7483 8.71072C14.6625 8.61246 14.7639 8.56623 14.7639 8.56623H14.7717C14.8106 8.60091 15.6992 9.46204 15.8162 9.62387C15.8707 9.699 15.8629 9.79147 15.8006 9.8666H15.8084Z" fill="black"/>
  <path d="M14.4545 4.60879C14.356 4.33778 14.1817 4.16312 14.0378 3.98847C13.962 3.89813 13.4241 3.25974 13.2347 3.03088C13.2044 3.00077 13.1513 2.98873 13.1135 3.01282C13.1059 3.01282 13.0983 3.02486 13.0907 3.03088C13.015 3.12122 12.9847 3.22963 13.0074 3.33201C13.0528 3.48257 13.3862 4.47027 13.5908 4.83765L14.4242 6C14.4242 6 14.4696 5.96386 14.5 5.95182C14.5227 5.9458 14.5378 5.93977 14.5606 5.93977C14.6666 5.93977 14.8409 5.93977 15 5.93977L14.4696 4.60879H14.4545ZM14.1893 4.51845H14.1817C14.1439 4.48232 13.2801 3.58496 13.1665 3.41633C13.121 3.33803 13.1286 3.24167 13.1892 3.1694V3.15736L13.2119 3.1694C13.2119 3.18145 13.962 4.04267 14.2196 4.37391C14.303 4.4763 14.2045 4.52448 14.2045 4.52448L14.1893 4.51845Z" fill="black"/>
  <path d="M14.9126 7.04552C14.7072 6.99371 14.3236 6.99371 14.0908 7.00852C14.0839 7.00852 14.0771 7.00852 14.0634 7.00852H14.0497C14.0497 7.00852 14.036 7.00852 14.036 7.01592C14.0086 7.03812 13.9949 7.07512 14.0017 7.11213C14.1182 7.43037 14.2209 7.67461 14.3579 7.96325C14.3784 8.00025 14.4264 8.00765 14.4606 7.99285C14.4675 7.99285 14.4743 7.98545 14.4812 7.97805C14.6935 7.76342 14.8578 7.50438 14.9811 7.21574C15.0222 7.12693 14.9948 7.06032 14.9126 7.03812V7.04552ZM14.2415 7.47478L14.125 7.17874C14.125 7.17874 14.125 7.12693 14.1456 7.11213C14.1456 7.11213 14.1456 7.11213 14.1524 7.11213C14.1524 7.11213 14.1593 7.11213 14.1661 7.11213C14.1661 7.11213 14.6592 7.08993 14.8099 7.12693C14.8921 7.14173 14.8921 7.17874 14.8921 7.17874L14.2415 7.48218V7.47478Z" fill="black"/>
  <path d="M12.7208 7C12.7208 7 12.6364 7.39024 12.4935 7.83624L12.2403 7.4878L12.0325 7.59233L12.4091 8.10801C12.2922 8.45645 12.1494 8.79791 12 9L12.3766 8.81882C12.461 8.73519 12.5325 8.56098 12.5844 8.35192L12.7922 8.63066L13 8.52613L12.6494 8.05226C12.7273 7.62021 12.7468 7.14634 12.7208 7Z" fill="black"/>
</svg>