<svg xmlns="http://www.w3.org/2000/svg" width="17" height="21" viewBox="0 0 17 21" fill="none">
  <path d="M5.09466 12C5.11677 13.0606 6.63261 13.9171 8.5 13.9171C10.3674 13.9171 11.8835 13.0606 11.9056 12C14.7622 12.2709 17 14.7612 17 17.7939C16.9998 21.0079 14.4878 21 11.3893 21H5.61046C2.5122 21 0 21.0079 0 17.7939C0.000230789 14.7612 2.23691 12.2709 5.09466 12Z" fill="#EBBC13"/>
  <path d="M13.0191 8.47339C12.8986 8.50869 12.7744 8.52668 12.6496 8.52691H12.3961L12.393 8.52667C11.8612 11.1227 10.3196 13 8.50022 13C6.86676 13 5.46046 11.4834 4.80456 9.29524C4.49615 9.05872 4.24072 8.78755 4.05262 8.48963C4.03783 8.48629 4.02216 8.48438 4.00715 8.48056C3.42785 8.32574 3 7.79154 3 7.15342V6.07546C3 5.43805 3.42785 4.90313 4.00715 4.7488V4.58156C4.00692 2.0551 6.02938 0 8.51369 0C10.998 0 13.0191 2.05533 13.0191 4.5818V4.75549C13.585 4.91914 14 5.44761 14 6.0757V7.15342C14 7.78151 13.585 8.30997 13.0191 8.47339ZM8.50022 12.3191C10.3207 12.3191 11.8245 10.1794 12.0608 7.40427C11.9007 7.44775 11.704 7.53185 11.4899 7.69359C11.4899 7.69311 11.8963 5.08184 11.038 4.71535C11.038 4.71535 9.85397 5.33771 8.50044 5.3776C7.14669 5.33771 5.96227 4.71535 5.96227 4.71535C5.10436 5.08184 5.51124 7.69311 5.51124 7.69359C5.29974 7.534 5.10657 7.45062 4.94784 7.40666V7.46949C4.97401 7.75361 5.01462 8.03595 5.06948 8.31523C5.62979 8.86377 6.59256 9.25916 7.69795 9.33251C7.80302 9.23437 7.93711 9.18021 8.0759 9.17984H8.85742C9.01352 9.17984 9.16323 9.24695 9.2736 9.3664C9.38398 9.48584 9.44599 9.64785 9.44599 9.81677C9.44599 9.9857 9.38398 10.1477 9.2736 10.2672C9.16323 10.3866 9.01352 10.4537 8.85742 10.4537H8.0759C7.91717 10.4537 7.77411 10.3851 7.66792 10.2745C6.84954 10.2251 6.10246 10.0263 5.48232 9.71691C6.12144 11.2818 7.23345 12.3191 8.50022 12.3191ZM8.51369 0.956353C6.70449 0.956353 5.21033 2.33319 4.98139 4.10971C5.70242 2.75343 7.00628 1.84462 8.5 1.84462C10.0178 1.84462 11.3417 2.78257 12.0548 4.17589C11.8557 2.36735 10.3443 0.956353 8.51369 0.956353Z" fill="#EBBC13"/>
</svg>