<svg width="19" height="10" viewBox="0 0 19 10" fill="none" xmlns="http://www.w3.org/2000/svg">
<path fill-rule="evenodd" clip-rule="evenodd" d="M0.32281 0.245597H0.308221C0.585407 -0.0411916 1.05225 -0.0411913 1.32943 0.231258L9.55746 8.3187L17.7855 0.216918H17.7709C18.0481 -0.0698705 18.5149 -0.0698701 18.7921 0.202579C19.0693 0.475029 19.0693 0.93389 18.7921 1.20634L10.0389 9.81V9.79566C9.74711 10.0681 9.28028 10.0681 9.00309 9.79566C8.9885 9.78132 8.9885 9.78132 8.9885 9.78132L0.235278 1.17766L0.220689 1.16332C-0.0710848 0.876532 -0.0710849 0.417671 0.2061 0.145222C0.2061 0.130882 0.2061 0.130882 0.2061 0.130882L0.32281 0.245597Z" fill="white"/>
</svg>
