<svg width="26" height="25" viewBox="0 0 26 25" fill="none" xmlns="http://www.w3.org/2000/svg">
<path d="M20.0519 6.77637C20.6776 8.44123 20.8136 10.2531 20.4434 11.9941C20.0733 13.7351 19.2128 15.3311 17.9654 16.5902C16.718 17.8493 15.1369 18.7179 13.4121 19.0916C11.6873 19.4652 9.89228 19.3279 8.24292 18.6963C8.78209 20.1462 9.67302 21.4364 10.8341 22.4488C11.9952 23.4611 13.3894 24.1632 14.8889 24.4909C16.3884 24.8185 17.9455 24.7611 19.4173 24.324C20.8892 23.8869 22.229 23.0841 23.3139 21.989C24.3987 20.8939 25.1941 19.5416 25.6271 18.0559C26.0602 16.5701 26.117 14.9985 25.7925 13.4849C25.4679 11.9712 24.7723 10.564 23.7694 9.39194C22.7665 8.21992 21.4883 7.32062 20.0519 6.77637Z" fill="#EBBC13"/>
<path d="M11.4699 13.8935C11.7292 12.975 12.2165 12.1385 12.8856 11.4631C13.5546 10.7878 14.3834 10.2959 15.2933 10.0342C14.3834 9.77238 13.5546 9.28054 12.8856 8.60519C12.2165 7.92984 11.7292 7.09332 11.4699 6.1748C11.2106 7.09332 10.7233 7.92984 10.0542 8.60519C9.38517 9.28054 8.55644 9.77238 7.64648 10.0342C8.55644 10.2959 9.38517 10.7878 10.0542 11.4631C10.7233 12.1385 11.2106 12.975 11.4699 13.8935Z" fill="#EBBC13"/>
<path d="M17.587 3.08749C18.4316 3.08749 19.1163 2.39633 19.1163 1.54374C19.1163 0.691157 18.4316 0 17.587 0C16.7423 0 16.0576 0.691157 16.0576 1.54374C16.0576 2.39633 16.7423 3.08749 17.587 3.08749Z" fill="#EBBC13"/>
<path d="M1.52937 23.1558C2.37401 23.1558 3.05873 22.4647 3.05873 21.6121C3.05873 20.7595 2.37401 20.0684 1.52937 20.0684C0.68472 20.0684 0 20.7595 0 21.6121C0 22.4647 0.68472 23.1558 1.52937 23.1558Z" fill="#EBBC13"/>
</svg>
