<svg xmlns="http://www.w3.org/2000/svg" width="16" height="16" viewBox="0 0 16 16" fill="none">
  <path d="M7.99323 0.931308C6.65359 1.91546 6.89039 3.42801 6.89039 3.42801C6.89039 3.42801 6.05142 1.30119 4.96211 0C4.81326 1.67767 5.35453 3.89696 5.35453 3.89696C5.35453 3.89696 4.67118 2.52312 3 2.44386C4.38701 3.22325 4.92828 4.62351 5.05007 5C5.87551 4.50462 6.82273 4.22061 7.79702 4.18758C7.68877 3.83752 7.29635 2.35799 8 0.931308H7.99323Z" fill="black"/>
  <path d="M8.06858 15.4883C7.25199 15.4883 6.44179 15.3023 5.72089 14.9418L5 15.1278C5.89952 15.6976 6.97129 16.0057 8.06858 15.9999C10.2313 15.9999 12.1834 14.8081 13 13L12.2855 13.1919C11.4944 14.5465 9.92504 15.4825 8.06858 15.4825V15.4883Z" fill="black"/>
  <path d="M7.92308 5.68182C8.8336 5.68182 9.58713 5.92424 10.3093 6.45455L11 6.20455C10.1334 5.45455 9.06593 5 7.9168 5C5.6876 5 3.78493 6.65909 3 9L3.70958 8.75758C4.48823 6.88636 6.05808 5.66667 7.9168 5.66667L7.92308 5.68182Z" fill="black"/>
  <path d="M2.91639 10.7638C2.84135 10.9969 2.72591 11.2017 2.57005 11.3572C2.4142 11.5267 2.22372 11.6468 1.9986 11.7174L1.19626 12L1 9.34387L1.78503 9.06131C1.98128 8.99773 2.16022 8.9836 2.32185 9.01892C2.48347 9.05424 2.61623 9.13195 2.72013 9.2591C2.82981 9.38626 2.90485 9.54873 2.95102 9.74653C2.97411 9.83837 2.98566 9.9302 2.99143 10.022C3.01452 10.2834 2.99143 10.5307 2.91639 10.7567V10.7638ZM2.35071 10.8062C2.44884 10.6366 2.48924 10.4318 2.47193 10.1916C2.47193 10.1351 2.46038 10.0715 2.44884 10.015C2.40843 9.83837 2.32762 9.71827 2.21217 9.6547C2.09673 9.59112 1.95242 9.58406 1.77926 9.64057L1.53682 9.71827L1.65804 11.2371L1.90047 11.1594C2.09673 11.0958 2.24681 10.9757 2.34494 10.8132L2.35071 10.8062Z" fill="black"/>
  <path d="M5.54037 8.05846C5.68944 8.13624 5.7764 8.28473 5.82609 8.47565C5.83851 8.53221 5.85093 8.58171 5.85093 8.63828C5.86957 8.8292 5.81367 9.00597 5.73292 9.16861C5.65217 9.33124 5.53416 9.45852 5.36646 9.56458L6 10.4485L5.39752 10.6323L4.81366 9.77671L4.68944 9.81207L4.7764 10.8303L4.22981 11L4 8.34837L4.96273 8.05139C5.19876 7.98068 5.38509 7.98068 5.53416 8.06553L5.54037 8.05846ZM5.26708 8.77263C5.2236 8.61 5.11801 8.55343 4.93168 8.61L4.59627 8.70899L4.65217 9.37367L4.98758 9.2676C5.19876 9.20396 5.29814 9.06254 5.27329 8.84334C5.27329 8.81506 5.26708 8.79384 5.26087 8.76556L5.26708 8.77263Z" fill="black"/>
  <path d="M7.34311 7.02367C7.48787 7.06916 7.62191 7.1753 7.72915 7.31936C7.83638 7.47099 7.90072 7.6757 7.94898 7.91073C7.97042 8.01688 7.98651 8.1306 7.99187 8.24433C8.01332 8.50969 7.99187 8.74473 7.93289 8.97218C7.87391 9.19963 7.7774 9.40434 7.64872 9.57114C7.52004 9.73794 7.35919 9.85925 7.17153 9.92748C6.98923 9.99572 6.82302 10.026 6.66753 9.97297C6.52277 9.92748 6.38872 9.82892 6.28149 9.67728C6.17426 9.52565 6.09919 9.3361 6.05094 9.10107C6.02949 8.98734 6.0134 8.87362 6.00804 8.75989C5.9866 8.50211 6.00804 8.25191 6.07238 8.02446C6.13136 7.79701 6.22787 7.5923 6.35655 7.4255C6.48523 7.2587 6.64608 7.13739 6.83374 7.06916C7.01068 7.00092 7.18762 6.97818 7.33774 7.02367H7.34311ZM6.58711 8.03962C6.50668 8.214 6.47987 8.42629 6.49596 8.66891C6.49596 8.73714 6.50668 8.7978 6.52277 8.86604C6.5603 9.05558 6.61928 9.19205 6.72115 9.27545C6.82302 9.35885 6.97315 9.35885 7.08038 9.31336C7.22515 9.24512 7.34311 9.13898 7.41817 8.9646C7.49323 8.79022 7.53613 8.57793 7.52004 8.34289C7.51468 8.27466 7.50396 8.20642 7.49323 8.14577C7.4557 7.95622 7.386 7.81975 7.28949 7.73635C7.19298 7.66053 7.07502 7.64537 6.93562 7.69844C6.78549 7.7591 6.67289 7.87282 6.59247 8.0472L6.58711 8.03962Z" fill="black"/>
  <path d="M9.787 8.90391L9.86984 9.82918L9.25543 10L9 7.33096L9.9803 7.05338C10.2357 6.98221 10.4842 6.98221 10.643 7.05338C10.8018 7.12456 10.9123 7.2669 10.9675 7.47331C10.9813 7.53025 10.9951 7.59431 10.9951 7.65836C11.0089 7.81495 10.9951 7.97865 10.933 8.12811C10.8777 8.27758 10.7673 8.41993 10.643 8.52669C10.5188 8.63345 10.3462 8.7331 10.1529 8.79004L9.78009 8.8968L9.787 8.90391ZM10.36 7.8363C10.36 7.8363 10.3531 7.77936 10.3462 7.75089C10.2979 7.58719 10.1736 7.53025 9.97339 7.58719L9.67654 7.6726L9.74558 8.36299L10.0424 8.27758C10.2771 8.21352 10.3807 8.06406 10.3669 7.8363H10.36Z" fill="black"/>
  <path d="M12.9222 8.35113C12.8685 8.48158 12.7679 8.59668 12.6539 8.7041C12.5399 8.81153 12.4057 8.88826 12.238 8.94197C11.963 9.02638 11.6813 9.0187 11.4934 8.91895C11.3056 8.8192 11.1916 8.63504 11.1245 8.37415L11.7685 8.18232C11.7886 8.28975 11.8355 8.32044 11.8959 8.36648C11.9563 8.41252 12.0301 8.42019 12.124 8.3895C12.2045 8.36648 12.2648 8.31277 12.2984 8.24371C12.3319 8.17465 12.3319 8.10559 12.3118 8.01351C12.2984 7.95213 12.2648 7.89842 12.2246 7.86772C12.1776 7.83703 12.1374 7.82168 12.0837 7.80634C12.0301 7.79099 11.9429 7.77565 11.8422 7.7603C11.7014 7.74495 11.5538 7.72193 11.4599 7.69124C11.366 7.66055 11.2788 7.60683 11.205 7.53778C11.1245 7.46104 11.0709 7.35362 11.0373 7.20783C11.0239 7.13877 11.0105 7.07738 11.0038 7.00833C10.9837 6.80115 11.044 6.60932 11.1782 6.44051C11.3123 6.2717 11.527 6.14125 11.755 6.06452C12.0368 5.97244 12.285 5.98012 12.4594 6.07987C12.6338 6.17962 12.7679 6.36378 12.835 6.60932L12.1978 6.80882C12.1776 6.71674 12.1307 6.64001 12.077 6.60165C12.0234 6.56328 11.9563 6.55561 11.8758 6.57863C11.802 6.60165 11.7483 6.64769 11.7081 6.70907C11.6746 6.77046 11.6611 6.84719 11.688 6.93159C11.7014 6.98531 11.7282 7.03902 11.7752 7.06971C11.8221 7.1004 11.8691 7.12342 11.9227 7.13877C11.9764 7.15412 12.0569 7.16179 12.1575 7.17714C12.2783 7.19248 12.3923 7.2155 12.5063 7.24619C12.6002 7.27689 12.6874 7.3306 12.7679 7.39966C12.8484 7.47639 12.9289 7.58382 12.9624 7.72961C12.9759 7.79099 12.9893 7.86005 12.996 7.92144C13.0094 8.05188 12.9893 8.22836 12.9356 8.35881L12.9222 8.35113Z" fill="black"/>
  <path d="M4.20318 14.5568L3.96343 14.3954C3.91407 14.4541 3.75894 14.6082 3.66022 14.6742C3.46983 14.8137 3.34995 14.8503 3.23713 14.8944C3.12431 14.9384 3.1102 14.9457 2.93392 14.9751C2.89866 14.9751 2.87045 14.9824 2.8352 14.9898C2.6166 15.0044 2.56724 15.0044 2.46852 14.9824C2.27108 14.9457 2.13005 14.8357 2.05248 14.6596C2.03133 14.6008 2.01722 14.5348 2.01017 14.4761C1.98197 14.2413 2.01017 14.0505 2.123 13.867C2.23582 13.6836 2.37685 13.5075 2.48262 13.4194L2.41916 13.346C2.34864 13.258 2.32044 13.1846 2.29223 13.1038C2.24992 12.9791 2.25698 12.8397 2.29223 12.7002C2.33454 12.5608 2.41211 12.4361 2.53198 12.3187C2.65186 12.2012 2.81404 12.1059 3.00443 12.0545C3.24418 11.9884 3.43457 11.9811 3.5756 12.0398C3.72368 12.0985 3.81535 12.1866 3.87881 12.3407C3.90702 12.4141 3.92112 12.4948 3.92818 12.5755L3.30059 12.759C3.30059 12.759 3.27944 12.6489 3.24418 12.6122C3.20892 12.5828 3.15251 12.5682 3.082 12.5828C3.02559 12.5975 2.97623 12.6342 2.94097 12.6856C2.91276 12.7296 2.89866 12.781 2.90571 12.8323C2.90571 12.8837 2.93392 12.9351 2.96212 12.9718C2.99033 13.0085 3.02559 13.0378 3.06084 13.0745L3.83651 13.5882L5 14.3513L4.21023 14.5788L4.20318 14.5568ZM2.88456 13.6909C2.82109 13.7423 2.77173 13.8157 2.72237 13.8817C2.66596 13.9551 2.64481 14.0505 2.65186 14.1459C2.65186 14.1679 2.65891 14.1899 2.66596 14.2119C2.68712 14.2853 2.74353 14.3293 2.80699 14.3587C2.87045 14.388 2.92687 14.4027 3.02559 14.388C3.13136 14.3734 3.30059 14.3367 3.50509 14.1018L2.88456 13.6836V13.6909Z" fill="black"/>
  <path d="M4.18644 13.2167L5 13L4.55085 14L4 13.6583L4.18644 13.2167Z" fill="black"/>
  <path d="M8 11L7.70117 14.2389L7.04492 14.4818L6.57617 12.5628L6.36523 14.7571L5.70898 15L5 12.1336L5.55664 11.915L5.99023 14.0121L6.20703 11.6721L6.77539 11.4534L7.29688 13.5101L7.43164 11.2024L7.98828 11H8Z" fill="black"/>
  <path d="M8.728 10.0075L9 12.8134L8.288 13L8 10.1791L8.72 10L8.728 10.0075Z" fill="black"/>
  <path d="M11.9944 11.4167L11.4986 11.5769L10.5515 10.3462L10.6797 11.8462L10.1783 12L10 9.58974L10.4847 9.42949L11.4262 10.641L11.3148 9.15385L11.8106 9L12 11.4103L11.9944 11.4167Z" fill="black"/>
  <path d="M13.9289 11.3572C13.8753 11.4867 13.7747 11.601 13.6607 11.7076C13.5467 11.8143 13.4126 11.8904 13.245 11.9438C12.97 12.0276 12.6817 12.02 12.5007 11.9057C12.3129 11.7914 12.1989 11.6238 12.1319 11.3648L12.7622 11.1743C12.7823 11.2657 12.8292 11.3495 12.903 11.3953C12.9633 11.441 13.0572 11.4257 13.1444 11.3953C13.2181 11.3724 13.2785 11.3191 13.312 11.2429C13.3455 11.1743 13.3455 11.0981 13.3254 11.0067C13.312 10.9458 13.2718 10.8925 13.2249 10.862C13.1779 10.8315 13.1377 10.8163 13.084 10.801C13.0304 10.7858 12.9432 10.7706 12.8426 10.7553C12.7018 10.7401 12.5543 10.7172 12.4604 10.6868C12.3666 10.6563 12.2794 10.603 12.2056 10.5344C12.1252 10.4582 12.0715 10.3516 12.038 10.2068C12.0246 10.1382 12.0112 10.0773 12.0045 10.0087C11.9843 9.80304 12.0313 9.61258 12.1654 9.44497C12.2995 9.27737 12.5275 9.13262 12.7555 9.06406C13.0371 8.97264 13.2852 8.98026 13.4595 9.0793C13.6339 9.17833 13.768 9.36117 13.835 9.60496L13.198 9.80303C13.1846 9.71923 13.1444 9.65067 13.0773 9.60496C13.0237 9.56687 12.9566 9.55925 12.8762 9.5821C12.8024 9.60496 12.7488 9.65067 12.7085 9.71162C12.675 9.77256 12.6616 9.84874 12.6884 9.93255C12.7018 9.98587 12.7286 10.0392 12.7756 10.0697C12.8225 10.1001 12.8695 10.123 12.9231 10.1382C12.9767 10.1535 13.0572 10.1611 13.1578 10.1763C13.2785 10.1916 13.3925 10.2144 13.5065 10.2449C13.6071 10.2754 13.6942 10.3211 13.7747 10.3973C13.8686 10.4811 13.9289 10.603 13.9624 10.7325C13.9759 10.7934 13.9893 10.862 13.996 10.9229C14.0094 11.0601 13.9893 11.2277 13.9356 11.3572H13.9289Z" fill="black"/>
</svg>