<svg xmlns="http://www.w3.org/2000/svg" width="20" height="16" viewBox="0 0 20 16" fill="none">
  <path opacity="0.6" d="M19.4716 6.07787C18.1249 3.80794 15.1024 0 10 0C4.89762 0 1.87506 3.80794 0.528442 6.07787C-0.176147 7.26291 -0.176147 8.73606 0.528442 9.92213C1.87506 12.1921 4.89762 16 10 16C15.1024 16 18.1249 12.1921 19.4716 9.92213C20.1761 8.73606 20.1761 7.26394 19.4716 6.07787ZM18.1515 9.12727C16.972 11.1154 14.3434 14.4516 10 14.4516C5.65657 14.4516 3.02795 11.1164 1.84851 9.12727C1.43621 8.43153 1.43621 7.56747 1.84851 6.87172C3.02795 4.88359 5.65657 1.54738 10 1.54738C14.3434 1.54738 16.972 4.88256 18.1515 6.87172C18.5648 7.5685 18.5648 8.43153 18.1515 9.12727ZM10 3.6129C7.59599 3.6129 5.64119 5.58142 5.64119 8C5.64119 10.4186 7.59599 12.3871 10 12.3871C12.404 12.3871 14.3588 10.4186 14.3588 8C14.3588 5.58142 12.404 3.6129 10 3.6129ZM10 10.8387C8.44416 10.8387 7.17959 9.56594 7.17959 8C7.17959 6.43406 8.44416 5.16129 10 5.16129C11.5558 5.16129 12.8204 6.43406 12.8204 8C12.8204 9.56594 11.5558 10.8387 10 10.8387Z" fill="#757575"/>
</svg>