<svg xmlns="http://www.w3.org/2000/svg" width="9" height="15" viewBox="0 0 9 15" fill="none">
  <path d="M4.3571 0.0249834C4.36713 0.124917 4.37214 0.219853 4.37214 0.319787C4.37214 3.10293 0 4.97668 0 8.43937C0 9.94337 1.24345 10.9477 2.26128 11.8321C4.19666 13.2412 4.57772 13.8708 4.57772 14.3304C4.57772 14.6352 4.50251 14.8401 4.50251 15C4.88357 14.4903 4.92869 14.0356 4.9337 13.5959C4.9337 12.7015 4.30195 11.8921 3.63008 10.9727C3.15376 10.2981 2.37159 9.68354 2.37159 8.87408C2.37159 6.64057 5.49526 5.16656 5.49526 2.73318C5.49526 1.31163 4.48245 0.0699534 4.33203 0L4.3571 0.0249834ZM6.20223 4.02232L6.32256 4.23718C6.39276 4.39207 6.42284 4.56196 6.42284 4.75183C6.42284 6.09594 4.67298 8.0996 4.59777 8.26449C4.52758 8.41939 4.50251 8.58428 4.50251 8.73917C4.50251 9.34377 4.95877 10.0083 5.039 10.0083C5.10919 10.0083 6.74373 8.33444 6.79387 7.36009C6.9844 7.70986 7.06462 8.03964 7.06462 8.36442C7.06462 9.6036 5.80111 11.2875 5.80111 11.2875C5.80111 11.6322 6.76379 12.8864 6.86908 12.8864C6.89916 12.8864 6.93927 12.8464 6.96434 12.8115C8.11253 11.6223 9 10.2432 9 8.68421C9 8.44437 8.97493 8.19454 8.9298 7.93971C8.56379 5.92955 6.67354 4.18721 6.17214 3.99234L6.20223 4.02232Z" fill="black"/>
</svg>