<svg xmlns="http://www.w3.org/2000/svg" width="13" height="15" viewBox="0 0 13 15" fill="none">
  <path d="M0.747363 0C0.336703 0 0 0.342869 0 0.761049V12.4305C0 12.8486 0.336703 13.1915 0.747363 13.1915H2.68292L9.22235 14.9752C9.28755 14.9921 9.35177 15 9.41697 15C9.5464 15 9.67291 14.9673 9.78773 14.8989C9.96192 14.7978 10.0865 14.6324 10.1361 14.4371L12.9738 3.65561C13.0263 3.45742 12.9991 3.25527 12.8998 3.0769C12.7996 2.90249 12.638 2.77565 12.4463 2.72214L9.4666 1.91055V0.761049C9.4666 0.342869 9.1299 0 8.71924 0H0.747363ZM0.747363 0.507366H8.71924C8.85645 0.507366 8.96836 0.621325 8.96836 0.761049V12.4305C8.96836 12.5702 8.85645 12.6842 8.71924 12.6842H0.747363C0.610152 12.6842 0.498242 12.5702 0.498242 12.4305V0.761049C0.498242 0.621325 0.610152 0.507366 0.747363 0.507366ZM2.24209 1.28031C2.15159 1.28031 2.06109 1.32292 2.01924 1.40913L1.27188 2.93024C1.21057 3.05609 1.2602 3.20869 1.38282 3.27112C1.5064 3.33355 1.65627 3.28302 1.71757 3.15816L1.77304 3.0442H2.71114L2.76661 3.15816C2.8104 3.24635 2.89895 3.29788 2.98945 3.29788C3.02741 3.29788 3.06536 3.28896 3.10136 3.27112C3.22398 3.20869 3.27361 3.05609 3.2123 2.93024L2.46494 1.40913C2.42309 1.32292 2.33259 1.28031 2.24209 1.28031ZM2.24209 2.08892L2.46202 2.53683H2.02216L2.24209 2.08892ZM9.4666 2.43476L12.3159 3.21464C12.3811 3.23149 12.4366 3.27311 12.4687 3.33058C12.5008 3.38905 12.5106 3.45742 12.494 3.52382L9.65636 14.3053C9.63885 14.3717 9.59797 14.4272 9.53861 14.4599C9.4812 14.4926 9.41697 14.5025 9.35177 14.4847L4.61361 13.1915H8.71924C9.1299 13.1915 9.4666 12.8486 9.4666 12.4305V2.43476ZM4.7333 4.051C4.63404 4.051 4.53478 4.08965 4.45985 4.16595L2.87657 5.77922C2.36373 6.30145 2.36373 7.15267 2.87657 7.6749C3.12569 7.92759 3.45558 8.06732 3.80688 8.06732C4.05016 8.06732 4.28177 7.99597 4.48418 7.8721V8.37154H3.98594C3.84873 8.37154 3.73682 8.4855 3.73682 8.62522C3.73682 8.76495 3.84873 8.87891 3.98594 8.87891H5.48066C5.61885 8.87891 5.72979 8.76495 5.72979 8.62522C5.72979 8.4855 5.61788 8.37154 5.48066 8.37154H4.98242V7.8721C5.18483 7.99597 5.41644 8.06732 5.65972 8.06732C6.01102 8.06732 6.34188 7.92759 6.59003 7.6749C7.10287 7.15267 7.10287 6.30145 6.59003 5.77922L5.00578 4.16595C4.93085 4.08965 4.83159 4.051 4.7333 4.051ZM4.7333 4.60593L6.23776 6.13794C6.55695 6.46297 6.55695 6.99115 6.23776 7.31618C5.92928 7.63031 5.39016 7.63031 5.08071 7.31618L4.90944 7.14177C4.86078 7.09222 4.79753 7.06745 4.7333 7.06745C4.66907 7.06745 4.60582 7.09222 4.55716 7.14177L4.38589 7.31618C4.07741 7.63031 3.5383 7.63031 3.22982 7.31618C2.91063 6.99115 2.91063 6.46297 3.22982 6.13794L4.7333 4.60593ZM1.74385 10.6547C1.60664 10.6547 1.49473 10.7686 1.49473 10.9084V11.4157C1.49473 11.5555 1.60664 11.6694 1.74385 11.6694C1.88106 11.6694 1.99297 11.5555 1.99297 11.4157V10.9084C1.99297 10.7686 1.88106 10.6547 1.74385 10.6547ZM2.98945 10.6547C2.85224 10.6547 2.74033 10.7686 2.74033 10.9084V11.4157C2.74033 11.5555 2.85224 11.6694 2.98945 11.6694C3.12666 11.6694 3.23857 11.5555 3.23857 11.4157V10.9084C3.23857 10.7686 3.12666 10.6547 2.98945 10.6547ZM4.23506 10.6547C4.09785 10.6547 3.98594 10.7686 3.98594 10.9084V11.4157C3.98594 11.5555 4.09785 11.6694 4.23506 11.6694C4.37227 11.6694 4.48418 11.5555 4.48418 11.4157V10.9084C4.48418 10.7686 4.37227 10.6547 4.23506 10.6547ZM5.48066 10.6547C5.34345 10.6547 5.23154 10.7686 5.23154 10.9084V11.4157C5.23154 11.5555 5.34345 11.6694 5.48066 11.6694C5.61788 11.6694 5.72979 11.5555 5.72979 11.4157V10.9084C5.72979 10.7686 5.61788 10.6547 5.48066 10.6547ZM6.72627 10.6547C6.58906 10.6547 6.47715 10.7686 6.47715 10.9084V11.4157C6.47715 11.5555 6.58906 11.6694 6.72627 11.6694C6.86348 11.6694 6.97539 11.5555 6.97539 11.4157V10.9084C6.97539 10.7686 6.86348 10.6547 6.72627 10.6547ZM7.97188 10.6547C7.83466 10.6547 7.72275 10.7686 7.72275 10.9084V11.4157C7.72275 11.5555 7.83466 11.6694 7.97188 11.6694C8.10909 11.6694 8.221 11.5555 8.221 11.4157V10.9084C8.221 10.7686 8.10909 10.6547 7.97188 10.6547Z" fill="black"/>
</svg>