<svg xmlns="http://www.w3.org/2000/svg" width="8" height="14" viewBox="0 0 8 14" fill="none">
  <path d="M1.77764 1.13519C1.59974 0.954938 1.31132 0.954938 1.13343 1.13519C0.955524 1.31543 0.955524 1.60765 1.13343 1.78789L1.77764 1.13519ZM6.27767 6.34729L5.95552 6.6736L6.27767 6.34729ZM6.27767 7.65271L5.95552 7.3264L6.27767 7.65271ZM1.13343 12.2121C0.955524 12.3923 0.955524 12.6846 1.13343 12.8649C1.31132 13.045 1.59974 13.045 1.77764 12.8649L1.13343 12.2121ZM1.13343 1.78789L5.95552 6.6736L6.59973 6.02089L1.77764 1.13519L1.13343 1.78789ZM5.95552 7.3264L1.13343 12.2121L1.77764 12.8649L6.59973 7.97911L5.95552 7.3264ZM5.95552 6.6736C6.13345 6.85388 6.13345 7.14612 5.95552 7.3264L6.59973 7.97911C7.13342 7.43837 7.13342 6.56163 6.59973 6.02089L5.95552 6.6736Z" fill="#999999" stroke="#999999"/>
</svg>