<svg xmlns="http://www.w3.org/2000/svg" width="16" height="15" viewBox="0 0 16 15" fill="none">
  <path fill-rule="evenodd" clip-rule="evenodd" d="M6.56393 7.42887C6.17805 8.16156 4.588 11.4044 5.27991 12.5577C5.45288 12.8155 5.7057 13.0055 5.99843 13.1004C6.1581 13.1479 6.57058 13.1751 6.69699 13.0462C6.79013 12.9444 6.74356 12.7612 6.74356 12.612V12.2931C6.74356 11.6351 6.79678 10.977 6.89657 10.3257C6.92319 10.129 7.08951 9.05707 7.176 8.92817C7.176 9.00958 7.16269 9.09099 7.14939 9.17919C7.10947 9.81011 7.04294 10.3732 7.10947 11.0109C7.13608 11.1737 7.14939 11.3366 7.176 11.4994C7.20261 11.6486 7.22922 11.8047 7.26914 11.9471C7.34232 12.2117 7.44877 12.5102 7.59513 12.7002C8.18725 13.4329 8.99226 13.2904 9.57771 12.7002C9.71743 12.5645 9.82387 12.3949 9.89706 12.2117C10.1831 11.5265 10.3628 10.8956 10.6289 10.2307C10.8285 9.72192 11.048 9.21989 11.3008 8.73822C11.6135 8.10729 12.3387 6.97433 12.7711 6.41125L13.004 6.11953C13.004 6.11953 12.8377 6.51979 12.7778 6.64191C12.6248 7.00147 12.505 7.38817 12.372 7.75451C12.1857 8.35152 12.046 8.96209 11.9462 9.58624C11.8996 9.89831 11.8464 10.2918 11.8331 10.6174C11.8331 10.6717 11.8264 10.726 11.8264 10.8006C11.8264 10.8684 11.8198 10.8956 11.8198 10.9702C11.8198 11.8929 11.873 12.7816 12.2123 13.6025C12.4185 14.0909 12.7911 14.5862 13.2435 14.8304C13.3366 14.8779 13.4098 14.905 13.503 14.9457C13.5495 14.9593 13.6028 14.9661 13.656 14.9729L13.8156 15H14.115L14.1416 14.9932C14.1549 14.9864 14.1749 14.9796 14.1882 14.9864L14.4743 14.9186C14.7936 14.7965 15.0797 14.5997 15.3192 14.3487C15.6053 14.0502 15.9512 13.6025 15.9978 13.1344C16.0045 13.0326 15.9978 13.0055 15.9512 12.9512C15.765 12.768 15.5454 13.4261 14.7271 13.0462C14.3146 12.8562 14.0086 12.4559 13.8489 12.0353C13.483 11.0245 13.4431 9.87796 13.5961 8.63645C13.7092 7.72059 14.0086 6.45195 14.3279 5.56323C14.461 5.20367 14.8535 4.38278 14.6007 4.09106C14.3479 3.85362 13.8023 4.13855 13.5628 4.2878C12.9175 4.68129 12.4584 5.16296 11.9262 5.71926C11.7732 5.88208 11.527 6.18737 11.3807 6.35697C11.1012 6.71653 10.8351 7.08288 10.5757 7.45601C9.93697 8.39222 9.3249 9.50483 8.94568 10.5632C8.89911 10.7124 8.75275 11.1669 8.75275 11.3162C8.21386 11.133 8.20721 9.02993 8.26043 8.52112C8.40014 7.20499 8.71283 6.33662 9.09205 5.13582C9.11866 5.02728 9.17854 4.88481 9.11866 4.78983C9.01887 4.62701 8.35357 3.9893 6.56393 7.42209V7.42887ZM7.02963 4.19961C5.99843 4.36243 4.38176 5.29864 3.53018 5.916C3.131 6.19415 2 7.15751 2 7.70024C2 7.91733 2.03326 8.16835 2.27277 8.47363C2.37257 8.59575 2.57881 8.80606 2.75178 8.8739C2.9048 8.92139 2.95803 8.85355 3.02455 8.75178C3.2441 8.39222 3.48361 8.03945 3.74307 7.70702C3.85617 7.56456 5.08032 6.18737 5.25995 6.1331C5.25329 6.16023 4.88738 6.67583 4.85412 6.71654C4.72106 6.90649 4.58135 7.11002 4.46159 7.30676C3.88279 8.21584 3.11104 9.68121 2.85158 10.7599C2.79835 10.977 2.73182 11.2958 2.71852 11.5062C2.71187 11.7707 2.72517 12.0014 2.83827 12.2321C2.99794 12.5713 3.30398 12.8223 3.66324 12.9105C3.82956 12.9512 4.21543 13.0055 4.32188 12.8359C4.3618 12.7612 4.34849 12.7612 4.3618 12.6527L4.38841 12.2592C4.39506 11.9946 4.52147 11.2348 4.57469 10.9634C4.74102 10.1832 4.96722 9.42342 5.24664 8.67716C6.11153 6.03812 7.78807 4.59988 7.72819 4.34886C7.66166 4.10463 7.23587 4.17926 7.03629 4.20639L7.02963 4.19961Z" fill="black"/>
  <path fill-rule="evenodd" clip-rule="evenodd" d="M3.82834 4.00332C3.66292 4.07615 3.50387 4.14899 3.34481 4.22183C3.66928 4.41385 4.04465 4.51318 4.42002 4.51318C4.47728 4.51318 4.5409 4.51318 4.59816 4.50655C5.39979 4.44034 6.09963 3.91724 6.41774 3.14914C6.46228 3.04982 6.49409 2.94387 6.51954 2.83793C6.53862 2.75185 6.55771 2.67239 6.57044 2.57969C6.57044 2.56644 6.57044 2.54658 6.5768 2.53334C6.08055 2.83793 5.5334 3.14914 4.94808 3.45373C4.63633 3.61265 4.33095 3.77156 4.03193 3.91062C3.96194 3.94372 3.89832 3.97683 3.8347 4.00994L3.82834 4.00332ZM4.94172 4.21521C4.78903 4.22845 4.6427 4.06291 4.7763 3.90399C4.73813 4.0894 4.96717 4.14237 5.04987 4.00332C5.07532 3.96359 5.0626 3.91724 5.03715 3.87751C5.07532 3.89737 5.10077 3.9371 5.1135 3.97683C5.16439 4.1225 4.99898 4.20196 4.93536 4.20858L4.94172 4.21521ZM2.12327 2.8909C0.729954 3.77818 -0.135302 4.56615 0.0173904 4.87074C0.0173904 4.88398 0.0237525 4.8906 0.0364769 4.89722C0.182807 5.08263 0.780852 5.00979 1.63338 4.73831C1.55704 4.66547 1.50614 4.5529 1.49978 4.44696C1.13077 4.49993 0.895371 4.46682 0.831749 4.32777C0.71723 4.0894 1.17531 3.58616 1.97694 2.99684C2.02784 2.96374 2.07237 2.92401 2.12327 2.8909ZM6.33503 0.725658C7.283 0.401203 7.95739 0.321744 8.07191 0.560119C8.20552 0.831602 7.59475 1.45403 6.5768 2.13604V2.1228C6.50681 0.884575 5.4825 -0.0689263 4.29278 0.00391059C3.09669 0.0767475 2.18689 1.14281 2.25688 2.38104C2.29505 3.00347 2.56862 3.57954 3.0267 3.97683C2.77221 4.08278 2.53045 4.16223 2.30778 4.23507C2.33322 4.28804 2.34595 4.34764 2.34595 4.40723C2.34595 4.42709 2.34595 4.45358 2.33959 4.47345C2.61316 4.3675 2.90582 4.24831 3.21121 4.11588C3.73927 3.88413 4.3055 3.61927 4.88446 3.31468C5.49523 2.99684 6.06782 2.67239 6.58316 2.35455C8.09736 1.4143 9.0835 0.566741 8.99443 0.222421C8.99443 0.209178 8.98806 0.202557 8.9817 0.189314C8.83537 -0.121899 7.70927 0.12972 6.18234 0.758765C6.23324 0.738901 6.27778 0.725658 6.32867 0.705793C6.32867 0.705793 6.33079 0.705793 6.33503 0.705793V0.725658ZM4.50273 1.88443C4.45183 1.88443 4.41366 1.8447 4.41366 1.79172C4.41366 1.73875 4.45819 1.69902 4.50909 1.70564C4.55363 1.70564 4.5918 1.74537 4.5918 1.79172C4.5918 1.83808 4.55362 1.88443 4.50273 1.88443ZM5.88968 1.75862C5.86423 1.67254 5.78789 1.63943 5.70518 1.61956C5.78153 1.5997 5.85787 1.5997 5.92786 1.62619C6.19507 1.73213 6.09963 2.06983 6.03601 2.17577C5.86423 2.42077 5.46342 2.42739 5.41252 2.04334C5.61611 2.31483 5.97239 2.04996 5.88968 1.752V1.75862ZM3.95558 3.1359C3.95558 3.08292 4.00012 3.04319 4.04465 3.04319C4.09555 3.04319 4.13372 3.08292 4.13372 3.1359C4.13372 3.18887 4.09555 3.2286 4.04465 3.2286C3.99375 3.2286 3.95558 3.18887 3.95558 3.1359ZM2.84856 2.37442C3.00125 2.20888 3.30664 2.24861 3.30664 2.53996C3.17939 2.31483 2.88673 2.47374 2.91854 2.7055C2.93127 2.77171 2.98217 2.80482 3.04579 2.83131C2.98853 2.83793 2.92491 2.83131 2.87401 2.7982C2.68314 2.68563 2.7913 2.44726 2.84856 2.37442ZM3.60566 1.11633C3.51023 1.11633 3.43388 1.03687 3.43388 0.937547C3.43388 0.838224 3.51023 0.758765 3.60566 0.758765C3.70109 0.758765 3.77744 0.838224 3.77744 0.937547C3.77744 1.03687 3.70109 1.11633 3.60566 1.11633ZM4.69995 0.884575C4.67451 0.831602 4.66178 0.765387 4.66814 0.705793C4.70632 0.480661 4.9608 0.500526 5.04987 0.540255C5.25346 0.639578 5.31709 0.95079 5.04987 1.05011C5.21529 0.851467 4.97353 0.613092 4.76994 0.725658C4.71268 0.758765 4.69995 0.824981 4.69359 0.891196L4.69995 0.884575Z" fill="#207FDA"/>
  <path d="M1.5 3C1.77632 3 2 2.77632 2 2.5C2 2.22368 1.77632 2 1.5 2C1.22368 2 1 2.22368 1 2.5C1 2.77632 1.22368 3 1.5 3Z" fill="#207FDA"/>
  <path d="M7.1806 1.35768C7.28093 1.35768 7.36119 1.2782 7.36119 1.17884C7.36119 1.07948 7.28093 1 7.1806 1C7.08027 1 7 1.07948 7 1.17884C7 1.2782 7.08027 1.35768 7.1806 1.35768Z" fill="#207FDA"/>
  <path d="M2.5 5C2.78 5 3 4.78 3 4.5C3 4.22 2.78 4 2.5 4C2.22 4 2 4.22 2 4.5C2 4.78 2.22 5 2.5 5Z" fill="#207FDA"/>
</svg>