<svg xmlns="http://www.w3.org/2000/svg" width="20" height="19" viewBox="0 0 20 19" fill="none">
  <path fill-rule="evenodd" clip-rule="evenodd" d="M6.10878 0.0556327C7.09753 0.010115 7.41278 0 9.93142 0C12.4501 0 12.7653 0.0109579 13.7532 0.0556327C14.7411 0.100307 15.4155 0.257934 16.0055 0.486365C16.6234 0.719854 17.1839 1.08484 17.6475 1.55687C18.1195 2.01964 18.4837 2.57934 18.7163 3.19804C18.9456 3.78808 19.1024 4.46242 19.1479 5.44864C19.1934 6.43907 19.2035 6.75432 19.2035 9.27212C19.2035 11.7908 19.1926 12.106 19.1479 13.0948C19.1032 14.081 18.9456 14.7553 18.7163 15.3454C18.4837 15.9641 18.1189 16.5248 17.6475 16.9882C17.1839 17.4602 16.6234 17.8244 16.0055 18.057C15.4155 18.2863 14.7411 18.4431 13.7549 18.4886C12.7653 18.5341 12.4501 18.5442 9.93142 18.5442C7.41278 18.5442 7.09753 18.5333 6.10878 18.4886C5.12256 18.4439 4.44823 18.2863 3.85818 18.057C3.23941 17.8244 2.67879 17.4596 2.21533 16.9882C1.74362 16.5252 1.37858 15.9648 1.14567 15.3462C0.917235 14.7562 0.760452 14.0818 0.714934 13.0956C0.669417 12.1052 0.659302 11.7899 0.659302 9.27212C0.659302 6.75348 0.67026 6.43822 0.714934 5.45032C0.759609 4.46242 0.917235 3.78808 1.14567 3.19804C1.37892 2.5794 1.74424 2.01906 2.21618 1.55603C2.67897 1.08442 3.23904 0.719385 3.85734 0.486365C4.44738 0.257934 5.12172 0.10115 6.10794 0.0556327H6.10878ZM13.6782 1.72461C12.7004 1.67994 12.4071 1.67067 9.93142 1.67067C7.45577 1.67067 7.16243 1.67994 6.18464 1.72461C5.28019 1.76592 4.78961 1.9168 4.46256 2.04408C4.03014 2.21267 3.72079 2.41244 3.39626 2.73696C3.08864 3.03624 2.85189 3.40058 2.70338 3.80326C2.5761 4.13031 2.42522 4.62089 2.38392 5.52534C2.33924 6.50313 2.32997 6.79646 2.32997 9.27212C2.32997 11.7478 2.33924 12.0411 2.38392 13.0189C2.42522 13.9234 2.5761 14.4139 2.70338 14.741C2.85174 15.1431 3.0886 15.508 3.39626 15.8073C3.6955 16.1149 4.06048 16.3518 4.46256 16.5002C4.78961 16.6274 5.28019 16.7783 6.18464 16.8196C7.16243 16.8643 7.45492 16.8736 9.93142 16.8736C12.4079 16.8736 12.7004 16.8643 13.6782 16.8196C14.5827 16.7783 15.0732 16.6274 15.4003 16.5002C15.8327 16.3316 16.1421 16.1318 16.4666 15.8073C16.7742 15.508 17.0111 15.1431 17.1595 14.741C17.2867 14.4139 17.4376 13.9234 17.4789 13.0189C17.5236 12.0411 17.5329 11.7478 17.5329 9.27212C17.5329 6.79646 17.5236 6.50313 17.4789 5.52534C17.4376 4.62089 17.2867 4.13031 17.1595 3.80326C16.9909 3.37084 16.7911 3.06149 16.4666 2.73696C16.1673 2.42936 15.803 2.19261 15.4003 2.04408C15.0732 1.9168 14.5827 1.76592 13.6782 1.72461ZM8.74712 12.1305C9.40853 12.4058 10.145 12.4429 10.8308 12.2356C11.5165 12.0282 12.109 11.5892 12.5071 10.9936C12.9051 10.3979 13.084 9.68251 13.0132 8.9696C12.9424 8.25669 12.6262 7.59047 12.1188 7.08474C11.7953 6.76146 11.4042 6.51393 10.9736 6.35996C10.5429 6.20598 10.0835 6.14941 9.62839 6.1943C9.17327 6.23919 8.73376 6.38443 8.34151 6.61956C7.94926 6.8547 7.61402 7.17388 7.35993 7.55412C7.10584 7.93437 6.93922 8.36623 6.87206 8.8186C6.8049 9.27097 6.83888 9.7326 6.97154 10.1703C7.10421 10.6079 7.33226 11.0107 7.63929 11.3497C7.94631 11.6886 8.32467 11.9553 8.74712 12.1305ZM6.56143 5.90213C7.00398 5.45957 7.52937 5.10852 8.10759 4.86901C8.68582 4.6295 9.30556 4.50623 9.93142 4.50623C10.5573 4.50623 11.177 4.6295 11.7553 4.86901C12.3335 5.10852 12.8589 5.45957 13.3014 5.90213C13.744 6.34468 14.095 6.87007 14.3345 7.44829C14.574 8.02652 14.6973 8.64626 14.6973 9.27212C14.6973 9.89799 14.574 10.5177 14.3345 11.0959C14.095 11.6742 13.744 12.1996 13.3014 12.6421C12.4076 13.5359 11.1954 14.038 9.93142 14.038C8.66743 14.038 7.45521 13.5359 6.56143 12.6421C5.66765 11.7483 5.16553 10.5361 5.16553 9.27212C5.16553 8.00813 5.66765 6.7959 6.56143 5.90213ZM15.7543 5.21599C15.864 5.11254 15.9518 4.98813 16.0125 4.85014C16.0732 4.71215 16.1057 4.56337 16.1079 4.41263C16.11 4.26188 16.082 4.11223 16.0253 3.97252C15.9686 3.83282 15.8845 3.70591 15.7779 3.5993C15.6713 3.4927 15.5444 3.40856 15.4047 3.35189C15.265 3.29521 15.1153 3.26714 14.9646 3.26934C14.8138 3.27153 14.665 3.30396 14.527 3.36468C14.3891 3.42541 14.2646 3.5132 14.1612 3.62287C13.96 3.83615 13.8498 4.11945 13.8541 4.41263C13.8584 4.7058 13.9768 4.98577 14.1841 5.1931C14.3914 5.40043 14.6714 5.51879 14.9646 5.52306C15.2577 5.52734 15.541 5.41719 15.7543 5.21599Z" fill="#EBBC13"/>
</svg>