<svg xmlns="http://www.w3.org/2000/svg" width="12" height="15" viewBox="0 0 12 15" fill="none">
  <path d="M0.045952 11.3853H0.0393873C0.938731 7.20893 2.86871 3.34798 5.63895 0.186518V0.179661C5.82932 -0.0466476 6.16411 -0.0603633 6.38074 0.145371C6.38731 0.152229 6.40044 0.165945 6.407 0.172803C6.51203 0.296244 6.60394 0.399111 6.67615 0.481405C9.2954 3.58114 11.1269 7.31866 12 11.3579C10.5886 11.6665 9.15098 11.8654 7.67396 11.9545L6.30197 14.8143H6.2954C6.21007 14.9788 6.01313 15.0474 5.84901 14.9651C5.78337 14.9308 5.73085 14.876 5.69803 14.8074L4.32604 11.9408C2.86871 11.8517 1.42451 11.6528 0 11.3373L0.045952 11.3853ZM4.44289 10.6104L5.19781 10.6516L6.02494 12.3866L6.85208 10.6516L7.607 10.6036H7.60044C8.52604 10.5418 9.45164 10.439 10.3707 10.2881C9.49759 7.16778 8.00744 4.27378 6.00525 1.79125H5.99869C3.98993 4.26692 2.49978 7.16093 1.63326 10.2812C2.54573 10.4321 3.47133 10.535 4.4081 10.5898L4.44289 10.6104ZM6.03151 9.27999L6.02494 9.27931C4.93523 9.27245 4.05558 8.3535 4.05558 7.22196C4.05558 6.08356 4.93523 5.16461 6.02494 5.16461H6.01838C7.10153 5.15775 7.98775 6.08356 7.98775 7.22196C7.98775 8.3535 7.10153 9.27931 6.01838 9.27931L6.03151 9.27999ZM6.03151 7.90843L6.02494 7.90774C6.38599 7.90774 6.6814 7.59914 6.6814 7.22196C6.6814 6.83792 6.38599 6.53618 6.02494 6.52932H6.01838C5.65076 6.52932 5.36192 6.83106 5.36192 7.2151C5.36192 7.59228 5.65076 7.90088 6.01838 7.89403L6.03151 7.90843Z" fill="black"/>
</svg>