<svg xmlns="http://www.w3.org/2000/svg" width="16" height="16" viewBox="0 0 16 16" fill="none">
  <path d="M7.99667 3.0135C5.67097 3.0135 2.51229 3.62761 2.51229 3.62761C1.83257 3.76933 1.30612 4.31595 1.17284 5.00429L0.0466472 11.2129C0.0133278 11.3681 0 11.5233 0 11.6853C0 12.9607 1.02624 14 2.28571 14C2.96543 14 3.56518 13.6963 3.98501 13.2172H3.99167L4.85798 12.2589H11.142L12.0083 13.2172H12.015C12.4348 13.6896 13.0346 13.9933 13.7143 13.9933C14.9738 13.9933 16 12.954 16 11.6785C16 11.5166 15.98 11.3546 15.9534 11.2061L14.8272 4.99755C14.7005 4.30245 14.1674 3.75583 13.4877 3.61411C13.4877 3.61411 10.329 3 8.00333 3L7.99667 3.0135ZM3.99833 6.48221C4.31154 6.48221 4.57143 6.73865 4.57143 7.06258V7.64294H5.14452C5.45773 7.64294 5.71762 7.89939 5.71762 8.22331C5.71762 8.54724 5.46439 8.80368 5.14452 8.80368H4.57143V9.38405C4.57143 9.70123 4.3182 9.96442 3.99833 9.96442C3.67847 9.96442 3.42524 9.70798 3.42524 9.38405V8.80368H2.85214C2.53894 8.80368 2.27905 8.54724 2.27905 8.22331C2.27905 7.89939 2.53228 7.64294 2.85214 7.64294H3.42524V7.06258C3.42524 6.7454 3.67847 6.48221 3.99833 6.48221ZM11.995 6.48221C12.3082 6.48221 12.5681 6.73865 12.5681 7.06258C12.5681 7.3865 12.3149 7.64294 11.995 7.64294C11.6751 7.64294 11.4219 7.3865 11.4219 7.06258C11.4219 6.73865 11.6751 6.48221 11.995 6.48221ZM10.8555 7.6362C11.1687 7.6362 11.4286 7.89264 11.4286 8.21656C11.4286 8.54049 11.1753 8.79693 10.8555 8.79693C10.5356 8.79693 10.2824 8.54049 10.2824 8.21656C10.2824 7.89264 10.5356 7.6362 10.8555 7.6362ZM13.1345 7.6362C13.4477 7.6362 13.7076 7.89264 13.7076 8.21656C13.7076 8.54049 13.4544 8.79693 13.1345 8.79693C12.8147 8.79693 12.5614 8.54049 12.5614 8.21656C12.5614 7.89264 12.8147 7.6362 13.1345 7.6362ZM11.995 8.79693C12.3082 8.79693 12.5681 9.05337 12.5681 9.3773C12.5681 9.70123 12.3149 9.95767 11.995 9.95767C11.6751 9.95767 11.4219 9.70123 11.4219 9.3773C11.4219 9.05337 11.6751 8.79693 11.995 8.79693Z" fill="black"/>
</svg>