<svg xmlns="http://www.w3.org/2000/svg" width="12" height="16" viewBox="0 0 12 16" fill="none">
  <path d="M6.00047 0C4.4097 0.0021102 2.88468 0.634979 1.75983 1.75983C0.634979 2.88468 0.0021102 4.4097 0 6.00047C0 10.3083 5.59044 15.7037 5.82796 15.9313C5.87416 15.9762 5.93605 16.0013 6.00047 16.0013C6.0649 16.0013 6.12679 15.9762 6.17299 15.9313C6.41051 15.7037 12.0009 10.3083 12.0009 6.00047C11.9988 4.4097 11.366 2.88468 10.2411 1.75983C9.11627 0.634979 7.59125 0.0021102 6.00047 0V0ZM6.00047 8.75069C5.45653 8.75069 4.92481 8.58939 4.47254 8.2872C4.02026 7.985 3.66776 7.55547 3.4596 7.05294C3.25145 6.5504 3.19698 5.99742 3.3031 5.46393C3.40922 4.93044 3.67115 4.4404 4.05578 4.05578C4.4404 3.67115 4.93044 3.40922 5.46393 3.3031C5.99742 3.19698 6.5504 3.25145 7.05294 3.4596C7.55547 3.66776 7.985 4.02026 8.2872 4.47254C8.58939 4.92481 8.75069 5.45653 8.75069 6.00047C8.75025 6.72974 8.46036 7.42902 7.94469 7.94469C7.42902 8.46036 6.72974 8.75025 6.00047 8.75069Z" fill="#EBBC13"/>
</svg>