<svg xmlns="http://www.w3.org/2000/svg" width="17" height="23" viewBox="0 0 17 23" fill="none">
  <path d="M8.5 0C4.91591 0 2 2.89412 2 6.45147V9.61045C2 9.82556 2.17589 10 2.39262 10H4.57167C4.67576 9.99999 4.77558 9.95894 4.84919 9.88589C4.92279 9.81284 4.96415 9.71376 4.96416 9.61045V6.45147C4.96416 4.51639 6.5503 2.94205 8.49995 2.94205C10.4496 2.94205 12.0358 4.51639 12.0358 6.45147V9.61045C12.0358 9.82556 12.2117 10 12.4285 10H14.6075C14.7116 9.99999 14.8114 9.95894 14.885 9.88589C14.9586 9.81284 15 9.71376 15 9.61045V6.45147C15 2.89412 12.0841 0 8.5 0ZM14.2151 9.22089H12.8209V6.45147C12.8209 4.08678 10.8825 2.16294 8.50009 2.16294C6.11764 2.16294 4.17932 4.08678 4.17932 6.45147V9.22089H2.78511V6.45147C2.78511 3.32373 5.3488 0.779156 8.50004 0.779156C11.6513 0.779156 14.2151 3.32373 14.2151 6.45147V9.22089Z" fill="#0C2240"/>
  <path d="M15.3521 9H1.64791C0.739275 9 0 9.76052 0 10.6953V21.3047C0 22.2395 0.739275 23 1.64791 23H15.3521C16.2608 23 17 22.2395 17 21.3047V10.6953C17 9.76052 16.2608 9 15.3521 9ZM16.2329 21.3047C16.2329 21.8043 15.8378 22.2108 15.3521 22.2108H1.64791C1.16224 22.2108 0.767148 21.8043 0.767148 21.3047V10.6953C0.767148 10.1956 1.16224 9.78919 1.64791 9.78919H15.3521C15.8378 9.78919 16.2329 10.1956 16.2329 10.6953V21.3047Z" fill="#0C2240"/>
  <path d="M10.2907 16.4992C10.7391 16.124 11 15.5755 11 14.9861C11 13.891 10.1028 13 9.00002 13C7.89719 13 7 13.891 7 14.9861C7 15.5755 7.26092 16.124 7.70938 16.4992L7.27795 18.5405C7.26624 18.596 7.26714 18.6534 7.28058 18.7085C7.29402 18.7636 7.31966 18.815 7.35565 18.859C7.39163 18.903 7.43704 18.9385 7.48857 18.9629C7.54011 18.9873 7.59648 19 7.65357 19H10.3465C10.4036 19 10.4599 18.9874 10.5115 18.963C10.563 18.9386 10.6084 18.9031 10.6444 18.8591C10.6804 18.8151 10.706 18.7637 10.7195 18.7086C10.7329 18.6535 10.7338 18.5961 10.722 18.5406L10.2907 16.4992ZM9.65851 16.0166C9.59267 16.0582 9.54117 16.1187 9.51088 16.1902C9.48059 16.2616 9.47294 16.3405 9.48897 16.4164L9.87381 18.2377H8.12628L8.51121 16.4165C8.52725 16.3407 8.51962 16.2617 8.48933 16.1903C8.45903 16.1189 8.40752 16.0583 8.34167 16.0167C7.98219 15.7895 7.7676 15.4042 7.7676 14.9861C7.7676 14.3113 8.32043 13.7623 9.00002 13.7623C9.67957 13.7623 10.2324 14.3113 10.2324 14.9861C10.2325 15.4043 10.0179 15.7895 9.65851 16.0166Z" fill="#0C2240"/>
</svg>