<svg width="18" height="18" viewBox="0 0 18 18" fill="none" xmlns="http://www.w3.org/2000/svg">
<path d="M8.99803 12.3914C8.82757 12.5685 8.73204 12.8082 8.73236 13.0579C8.73269 13.3077 8.82886 13.5471 8.99979 13.7237C9.17071 13.9003 9.40244 13.9997 9.64417 14C9.88589 14.0003 10.1179 13.9016 10.2893 13.7255L13.7326 10.1679C13.9038 9.99102 14 9.75107 14 9.50089C14 9.2507 13.9038 9.01075 13.7326 8.83384L10.2893 5.2763C10.118 5.09939 9.8858 5 9.64365 5C9.4015 5 9.16926 5.09939 8.99803 5.2763C8.82681 5.45321 8.73061 5.69315 8.73061 5.94334C8.73061 6.19353 8.82681 6.43347 8.99803 6.61038L10.8827 8.55756H0.913043C0.670889 8.55756 0.438653 8.65695 0.267424 8.83386C0.0961953 9.01077 0 9.25071 0 9.50091C0 9.7511 0.0961953 9.99104 0.267424 10.1679C0.438653 10.3449 0.670889 10.4442 0.913043 10.4442H10.8827L8.99803 12.3914Z" fill="#0C2240"/>
<path d="M16.4211 0H7.57895C7.16018 0 6.75857 0.163485 6.46246 0.454489C6.16635 0.745494 6 1.14018 6 1.55172V2.7931C6 3.04003 6.09981 3.27684 6.27748 3.45144C6.45514 3.62605 6.69611 3.72414 6.94737 3.72414C7.19863 3.72414 7.43959 3.62605 7.61726 3.45144C7.79493 3.27684 7.89474 3.04003 7.89474 2.7931V1.86207H16.1053V16.1379H7.89474V15.2069C7.89474 14.96 7.79493 14.7232 7.61726 14.5486C7.43959 14.374 7.19863 14.2759 6.94737 14.2759C6.69611 14.2759 6.45514 14.374 6.27748 14.5486C6.09981 14.7232 6 14.96 6 15.2069V16.4483C6 16.8598 6.16635 17.2545 6.46246 17.5455C6.75857 17.8365 7.16018 18 7.57895 18H16.4211C16.8398 18 17.2414 17.8365 17.5375 17.5455C17.8336 17.2545 18 16.8598 18 16.4483V1.55172C18 1.14018 17.8336 0.745494 17.5375 0.454489C17.2414 0.163485 16.8398 0 16.4211 0Z" fill="#0C2240"/>
</svg>
