<svg xmlns="http://www.w3.org/2000/svg" width="22" height="22" viewBox="0 0 22 22" fill="none">
  <path d="M16.9669 6.03516C17.4963 7.51801 17.6114 9.1318 17.2981 10.6825C16.9849 12.2331 16.2568 13.6547 15.2013 14.7761C14.1459 15.8976 12.808 16.6712 11.3485 17.004C9.88907 17.3368 8.37022 17.2145 6.97461 16.652C7.43084 17.9434 8.1847 19.0925 9.16716 19.9942C10.1496 20.8958 11.3293 21.5212 12.5981 21.813C13.867 22.1048 15.1845 22.0537 16.4299 21.6644C17.6754 21.2751 18.809 20.56 19.727 19.5847C20.645 18.6093 21.318 17.4048 21.6844 16.0815C22.0508 14.7582 22.0989 13.3584 21.8243 12.0102C21.5496 10.6621 20.9611 9.40866 20.1124 8.36478C19.2638 7.3209 18.1823 6.51991 16.9669 6.03516Z" fill="white"/>
  <path d="M9.70542 12.3749C9.92486 11.5568 10.3372 10.8117 10.9033 10.2102C11.4694 9.60867 12.1707 9.1706 12.9406 8.93743C12.1707 8.70427 11.4694 8.2662 10.9033 7.66468C10.3372 7.06316 9.92486 6.3181 9.70542 5.5C9.48597 6.3181 9.07368 7.06316 8.50755 7.66468C7.94142 8.2662 7.24018 8.70427 6.47021 8.93743C7.24018 9.1706 7.94142 9.60867 8.50755 10.2102C9.07368 10.8117 9.48597 11.5568 9.70542 12.3749Z" fill="white"/>
  <path d="M14.8815 2.74995C15.5962 2.74995 16.1756 2.13435 16.1756 1.37497C16.1756 0.615597 15.5962 0 14.8815 0C14.1668 0 13.5874 0.615597 13.5874 1.37497C13.5874 2.13435 14.1668 2.74995 14.8815 2.74995Z" fill="white"/>
  <path d="M1.29408 20.624C2.00878 20.624 2.58816 20.0084 2.58816 19.249C2.58816 18.4896 2.00878 17.874 1.29408 17.874C0.57938 17.874 0 18.4896 0 19.249C0 20.0084 0.57938 20.624 1.29408 20.624Z" fill="white"/>
</svg>