<svg xmlns="http://www.w3.org/2000/svg" width="23" height="16" viewBox="0 0 23 16" fill="none">
  <path d="M0.388711 9.46947C0.148226 9.70105 0.00964157 10.0126 0.00148953 10.3495C-0.00666251 10.6863 0.107466 11.0105 0.331647 11.2547L1.68081 12.7453C1.75319 12.8249 1.7928 12.9304 1.79128 13.0396C1.78976 13.1488 1.74723 13.2531 1.67266 13.3305L0.474308 14.5642C0.241975 14.8042 0.172682 15.1663 0.299039 15.4821C0.425396 15.7979 0.718869 16 1.04903 16H21.906C22.2362 16 22.5337 15.7979 22.6601 15.4821C22.7864 15.1663 22.7171 14.8042 22.4848 14.5642L21.3191 13.36C21.2811 13.3206 21.2511 13.2738 21.2308 13.2223C21.2104 13.1709 21.2002 13.1158 21.2005 13.0602C21.2009 13.0046 21.212 12.9496 21.233 12.8985C21.254 12.8473 21.2847 12.801 21.3232 12.7621L22.6316 11.4484C22.8516 11.2252 22.9825 10.9248 22.9984 10.6067C23.0142 10.2886 22.9139 9.97587 22.7171 9.73053L21.3068 7.99158C21.2335 7.90316 21.2009 7.78947 21.2131 7.67158C21.2253 7.55368 21.2824 7.45263 21.3721 7.38105L22.4074 6.57684C22.6845 6.36211 22.8598 6.03789 22.8924 5.68C22.9075 5.50397 22.8871 5.32662 22.8323 5.15919C22.7776 4.99176 22.6898 4.8379 22.5745 4.70737L21.2742 3.25053C21.2024 3.17039 21.1635 3.06454 21.1658 2.95534C21.1681 2.84614 21.2113 2.74213 21.2865 2.66526L22.4848 1.43579C22.7171 1.19579 22.7864 0.833684 22.6601 0.517895C22.5337 0.202105 22.2403 0 21.9101 0H1.04903C0.718869 0 0.42132 0.202105 0.294963 0.517895C0.168606 0.833684 0.241975 1.19579 0.474308 1.43579L1.66858 2.66947C1.82347 2.82947 1.82755 3.08632 1.68081 3.25474L0.323495 4.77474C0.10339 5.02316 -0.0148146 5.34737 0.00148953 5.68421C0.00799645 5.85057 0.0462772 6.01396 0.11413 6.16498C0.181983 6.31601 0.27807 6.45168 0.396863 6.56421L1.58706 7.69263C1.62806 7.73229 1.66074 7.78022 1.68308 7.83345C1.70542 7.88668 1.71694 7.94409 1.71694 8.00211C1.71694 8.06013 1.70542 8.11753 1.68308 8.17076C1.66074 8.22399 1.62806 8.27192 1.58706 8.31158L0.388711 9.46947ZM2.13732 7.07368L0.947126 5.94526C0.90765 5.90834 0.875761 5.86359 0.853354 5.81368C0.830948 5.76377 0.818481 5.70972 0.816694 5.65474C0.808542 5.54105 0.845226 5.43158 0.92267 5.34737L2.27998 3.82737C2.49523 3.5879 2.61212 3.27149 2.60603 2.94478C2.59995 2.61806 2.47137 2.30653 2.24738 2.07579L1.04495 0.842105H21.906L20.7117 2.07579C20.4878 2.30653 20.3592 2.61806 20.3531 2.94478C20.347 3.27149 20.4639 3.5879 20.6791 3.82737L21.9794 5.28421C22.0568 5.37263 22.0976 5.48632 22.0854 5.60842C22.0731 5.73053 22.0161 5.83579 21.9223 5.90737L20.887 6.71158C20.618 6.91789 20.4427 7.23368 20.406 7.57895C20.3694 7.92 20.4672 8.26947 20.6832 8.53474L22.0935 10.2737C22.228 10.4421 22.2158 10.6947 22.065 10.8463L20.7566 12.16C20.6394 12.2759 20.5461 12.4151 20.4824 12.5692C20.4186 12.7234 20.3857 12.8892 20.3857 13.0568C20.3816 13.3979 20.512 13.7179 20.7444 13.9579L21.9101 15.1579H1.04903L2.23922 13.9284C2.46453 13.6973 2.59359 13.3845 2.59892 13.0565C2.60425 12.7286 2.48543 12.4114 2.26776 12.1726L0.92267 10.6821C0.849302 10.5979 0.808542 10.4926 0.812618 10.3789C0.816694 10.2653 0.86153 10.16 0.94305 10.0842L2.14548 8.92632C2.39411 8.68632 2.53677 8.34947 2.53677 7.99579C2.5327 7.65053 2.39004 7.30947 2.13732 7.07368Z" fill="#0C2240"/>
  <path d="M7.52773 11.4723C7.60955 11.55 7.71182 11.5909 7.81818 11.5909C7.92455 11.5909 8.02682 11.55 8.10864 11.4723L15.0632 4.51773C15.1397 4.44124 15.1826 4.33749 15.1826 4.22932C15.1826 4.12114 15.1397 4.0174 15.0632 3.94091C14.9867 3.86442 14.8829 3.82145 14.7748 3.82145C14.6666 3.82145 14.5629 3.86442 14.4864 3.94091L7.53182 10.8955C7.36818 11.0509 7.36818 11.3127 7.52773 11.4723ZM8.63636 6.27273C9.54045 6.27273 10.2727 5.54045 10.2727 4.63636C10.2727 3.73227 9.54045 3 8.63636 3C7.73227 3 7 3.73227 7 4.63636C7 5.54045 7.73227 6.27273 8.63636 6.27273ZM8.63636 3.81818C9.08636 3.81818 9.45455 4.18636 9.45455 4.63636C9.45455 5.08636 9.08636 5.45455 8.63636 5.45455C8.18636 5.45455 7.81818 5.08636 7.81818 4.63636C7.81818 4.18636 8.18636 3.81818 8.63636 3.81818ZM12.7273 10.3636C12.7273 11.2677 13.4595 12 14.3636 12C15.2677 12 16 11.2677 16 10.3636C16 9.45955 15.2677 8.72727 14.3636 8.72727C13.4595 8.72727 12.7273 9.45955 12.7273 10.3636ZM15.1818 10.3636C15.1818 10.8136 14.8136 11.1818 14.3636 11.1818C13.9136 11.1818 13.5455 10.8136 13.5455 10.3636C13.5455 9.91364 13.9136 9.54545 14.3636 9.54545C14.8136 9.54545 15.1818 9.91364 15.1818 10.3636Z" fill="#0C2240"/>
</svg>