<svg width="18" height="18" viewBox="0 0 18 18" fill="none" xmlns="http://www.w3.org/2000/svg">
<g opacity="0.3">
<path d="M17.7802 16.7196L12.6613 11.6008C13.6528 10.376 14.2498 8.81971 14.2498 7.12469C14.2498 3.1961 11.0532 -0.000488281 7.12465 -0.000488281C3.19606 -0.000488281 -0.000488281 3.19606 -0.000488281 7.12465C-0.000488281 11.0532 3.1961 14.2498 7.12469 14.2498C8.81971 14.2498 10.376 13.6528 11.6008 12.6613L16.7196 17.7802C16.8659 17.9264 17.0579 17.9999 17.2499 17.9999C17.4419 17.9999 17.6339 17.9264 17.7802 17.7802C18.0734 17.4869 18.0734 17.0129 17.7802 16.7196ZM7.12469 12.7498C4.0226 12.7498 1.49956 10.2267 1.49956 7.12465C1.49956 4.02257 4.0226 1.49952 7.12469 1.49952C10.2268 1.49952 12.7498 4.02257 12.7498 7.12465C12.7498 10.2267 10.2267 12.7498 7.12469 12.7498Z" fill="#0C2240"/>
</g>
</svg>
