<svg xmlns="http://www.w3.org/2000/svg" width="14" height="12" viewBox="0 0 14 12" fill="none">
  <path d="M5.38462 0C4.34377 0 3.40188 0.26087 2.71965 0.521739H1.61538C1.02038 0.521739 0.538462 0.988696 0.538462 1.56522V10.9565C0.241231 10.9565 0 11.1897 0 11.4783C0 11.7668 0.241231 12 0.538462 12H10.2308C10.5285 12 10.7692 11.7668 10.7692 11.4783C10.7692 11.1897 10.5285 10.9565 10.2308 10.9565V1.56522C10.2308 0.988696 9.74885 0.521739 9.15385 0.521739H8.04958C7.36735 0.26087 6.42546 0 5.38462 0ZM12.9231 1.56522C12.3281 1.56522 11.8462 2.03217 11.8462 2.6087C11.8462 2.99423 12.0639 3.32681 12.3846 3.50747V6.26087C12.3846 6.55567 12.1504 6.78261 11.8462 6.78261H11.3077V7.82609H11.8462C12.7319 7.82609 13.4615 7.11911 13.4615 6.26087V3.50747C13.7823 3.32681 14 2.99423 14 2.6087C14 2.03217 13.5181 1.56522 12.9231 1.56522ZM2.69231 2.08696H8.07692C8.67192 2.08696 9.15385 2.55391 9.15385 3.13043V5.21739C9.15385 5.79391 8.67192 6.26087 8.07692 6.26087H2.69231C2.09731 6.26087 1.61538 5.79391 1.61538 5.21739V3.13043C1.61538 2.55391 2.09731 2.08696 2.69231 2.08696ZM2.69231 3.13043V5.21739H3.76923V3.13043H2.69231ZM4.84615 3.13043V5.21739H5.92308V3.13043H4.84615ZM7 3.13043V5.21739H8.07692V3.13043H7ZM2.69231 7.82609H8.07692V9.91304H2.69231V7.82609Z" fill="black"/>
</svg>