<svg xmlns="http://www.w3.org/2000/svg" width="16" height="16" viewBox="0 0 16 16" fill="none">
  <path d="M7.31277 9.32617C7.41949 8.91797 7.49952 8.50328 7.55288 8.08212L7.62625 7.55729C7.69961 6.98062 7.7463 6.61129 7.7463 6.44283V6.3586C7.76631 6.15773 7.71295 5.96335 7.59957 5.80137C7.42616 5.65234 7.20606 5.56811 6.96595 5.56811C6.58578 5.53571 6.19895 5.52275 5.81878 5.53571H2.59068C2.61068 5.43852 2.63069 5.33485 2.63736 5.23766C2.63736 5.18582 2.66404 5.14695 2.69739 5.10807C2.73741 5.06271 2.78409 5.0368 2.84412 5.0368C2.97751 5.02384 3.11758 5.01736 3.25764 5.02384H6.14559C6.47907 5.02384 6.79921 5.02384 7.13269 4.97848C7.29276 4.96552 7.45284 4.92664 7.60624 4.86833C7.81967 4.7517 7.97974 4.54436 8.04643 4.3111C8.15982 3.88346 8.24652 3.44934 8.28654 3.00874H2.83078C2.46395 2.99578 2.09712 3.00874 1.73029 3.04113C1.51686 3.04113 1.31678 3.11241 1.14337 3.22904C0.963285 3.38454 0.849902 3.58541 0.803214 3.81866C0.716509 4.22039 0.643143 4.62211 0.596456 5.03032L0.52309 5.54219C0.436384 6.11238 0.376358 6.48818 0.34301 6.66961V6.84455C0.32967 7.0195 0.383027 7.18796 0.489741 7.33051C0.663152 7.45362 0.863241 7.52489 1.08334 7.53137C1.26342 7.54433 1.55688 7.56377 1.95039 7.56377H5.55199C5.55199 7.65448 5.52531 7.74519 5.5053 7.8359C5.5053 7.9007 5.47863 7.95901 5.44528 8.01085C5.40526 8.04972 5.36524 8.07564 5.31188 8.08212C5.2652 8.08212 5.15181 8.09508 4.97173 8.09508H0.136251C0.0695547 8.50328 0.0295369 8.91149 0.00285841 9.32617C-0.0104808 9.49464 0.0228673 9.6631 0.102903 9.81213C0.209617 9.92228 0.34301 10.0065 0.496411 10.0454C0.976625 10.0907 1.45684 10.1102 1.94372 10.1037H5.15848C5.64537 10.1037 6.11891 10.0907 6.60579 10.0454C6.79254 10 6.95928 9.9158 7.10602 9.78621C7.19939 9.65014 7.27276 9.50111 7.31277 9.33913V9.32617ZM15.9233 3.36511C15.8232 3.16424 15.5564 3.06705 15.1029 3.03465C14.7628 3.00226 14.4293 2.99578 14.0891 3.00226H10.781C10.3875 3.00226 10.0006 3.00226 9.60713 3.04761C9.327 3.04761 9.06022 3.15128 8.86013 3.34567C8.73341 3.54653 8.6467 3.76035 8.60668 3.98713C8.57333 4.16207 8.53332 4.48604 8.45995 5.0044L8.38658 5.52923L7.73963 10.0713L7.47952 12.0864C7.47952 12.1642 7.45284 12.2419 7.43283 12.3197C7.41949 12.3909 7.37947 12.4557 7.33278 12.5076C7.27943 12.5788 7.22607 12.6501 7.1527 12.7149C7.09268 12.7667 6.97262 12.8575 6.79921 13H7.49285C7.67293 13 7.84634 12.987 8.01976 12.9676C8.21984 12.9546 8.41326 12.9158 8.61335 12.8704C8.76008 12.8251 8.90015 12.7603 9.0202 12.6696C9.18027 12.5529 9.30032 12.4039 9.38703 12.2289C9.45373 12.0864 9.49374 11.9309 9.52042 11.7754L9.81389 10.0778H13.2354C13.6022 10.0778 13.9824 10.0778 14.3492 10.0324C14.5627 10.013 14.7628 9.93524 14.9228 9.79917C15.0962 9.62422 15.2029 9.39744 15.2296 9.15771C15.2763 8.95684 15.3297 8.60048 15.4097 8.0562C15.6565 6.36508 15.8032 5.35429 15.8499 5.01088C15.9233 4.68691 15.9633 4.36942 15.9833 4.03896C15.9966 3.94825 15.9966 3.85106 15.9966 3.76683C16.01 3.62428 15.9833 3.48173 15.9233 3.35215H15.9099L15.9233 3.36511ZM13.3955 7.57025C13.3955 7.65448 13.3688 7.74519 13.3488 7.82942C13.3355 7.9007 13.3021 7.95253 13.2621 8.00437C13.2221 8.02381 13.1887 8.04325 13.162 8.06268C13.1154 8.06268 13.0753 8.06268 13.0286 8.07564H12.7218H10.094L10.4542 5.54219C10.4742 5.445 10.5009 5.34781 10.5275 5.2571C10.5409 5.19878 10.5676 5.14695 10.6009 5.10159C10.6609 5.04975 10.7343 5.03032 10.8077 5.03032C10.9144 5.01736 11.0211 5.01088 11.1345 5.01736H13.7623L13.3955 7.56377V7.57025Z" fill="black"/>
</svg>