<svg xmlns="http://www.w3.org/2000/svg" width="16" height="18" viewBox="0 0 16 18" fill="none">
  <path d="M13.2748 0C13.2748 0 9.50382 4.75543 7.36641 7.53506C7 8.01586 5.61069 9.76628 4.9771 10.202C4.31298 10.6528 3.71756 10.7429 3.1145 10.1344C2.50382 9.52588 2.58779 8.93239 3.03817 8.26377C3.44275 7.65526 5.07634 6.35559 5.63359 5.92738L5.70229 5.87479C6.94657 4.9207 8.58779 3.65109 10.0305 2.53923C9.37405 2.33639 8.69466 2.23122 8.00763 2.23122C4.25191 2.22371 1.20611 5.25876 1.20611 9C1.20611 11.6745 2.75573 13.9883 5.01527 15.0927C5.41221 14.5893 5.82443 14.0634 6.25191 13.5225L6.75573 12.8765C7.42748 12.02 8.08397 11.1786 8.63359 10.4649C9 9.98414 10.3893 8.23372 11.0229 7.80551C11.687 7.35476 12.2824 7.26461 12.8855 7.87312C13.4962 8.48164 13.4122 9.07513 12.9618 9.74374C12.5344 10.3748 10.7786 11.7646 10.2977 12.1327C9.56489 12.6886 8.70229 13.3573 7.81679 14.0409L7.50382 14.2813C5.16031 16.0918 2.81679 17.9174 2.71756 18C2.76336 17.9474 3.38931 17.1586 4.25191 16.0618C1.71756 14.7245 0 12.0651 0 9.00751C0 4.59766 3.58015 1.0217 8 1.0217C9.1145 1.0217 10.1832 1.25459 11.145 1.66027C12.2214 0.826377 13.0305 0.187813 13.229 0.0375626L13.2672 0.00751252L13.2824 0L13.2748 0ZM12.4122 2.34391C14.5725 3.77129 16 6.22037 16 9C16 13.4099 12.4198 16.9858 8 16.9858C7.22137 16.9858 6.45038 16.8731 5.70992 16.6553C6.09924 16.3548 6.51145 16.0317 6.93893 15.7012C7.28244 15.7538 7.64122 15.7838 8 15.7838C11.7557 15.7838 14.7939 12.7487 14.7939 9.00751C14.7939 6.61102 13.5496 4.50751 11.6641 3.298C11.9313 2.95993 12.1832 2.64441 12.4122 2.34391Z" fill="black"/>
</svg>