<svg xmlns="http://www.w3.org/2000/svg" width="16" height="16" viewBox="0 0 16 16" fill="none">
  <path d="M4.01273 12.0767V11.1159H6.41818V12.2369C6.41818 13.2577 6.79364 13.7715 7.54455 13.7715H7.55091C8.29545 13.7715 8.66455 13.2644 8.66455 12.2435C8.66455 11.6631 8.50545 11.1159 8.18091 10.6022C7.85636 10.0884 7.47455 9.62802 7.02909 9.201L5.82 7.88657C5.32364 7.42619 4.90364 6.85905 4.56636 6.17848C4.22909 5.49792 4.06364 4.75063 4.06364 3.92994C4.06364 2.66222 4.38182 1.68807 5.01818 1.01418C5.65455 0.333611 6.51364 0 7.60182 0C8.69 0 9.53 0.340284 10.1091 1.01418C10.6945 1.69475 10.9873 2.66222 10.9873 3.92994V4.43036H8.76636V3.77648C8.76636 2.74896 8.37182 2.2352 7.58909 2.2352C6.80636 2.2352 6.41182 2.74896 6.41182 3.77648C6.41182 4.2035 6.50091 4.61718 6.66636 5.00417C6.83818 5.39116 7.06091 5.74479 7.32818 6.05838C7.59545 6.37198 7.90091 6.6789 8.22545 6.98582C8.55636 7.29274 8.88091 7.61301 9.19909 7.94662C9.51727 8.28023 9.81 8.64053 10.0836 9.02085C10.3509 9.40117 10.5736 9.85488 10.7455 10.3753C10.9173 10.8957 11 11.4629 11 12.0767C11 13.3378 10.7009 14.3119 10.1027 14.9858C9.50455 15.6597 8.66455 16 7.57 16C6.47545 16 5.61 15.6597 4.96727 14.9858C4.32455 14.3119 4 13.3378 4 12.0701L4.01273 12.0767Z" fill="black"/>
</svg>