<svg xmlns="http://www.w3.org/2000/svg" width="21" height="23" viewBox="0 0 21 23" fill="none">
  <path d="M20.3773 5.75889C19.0762 5.75889 17.8756 5.32337 16.9116 4.58866C15.8059 3.74643 15.0115 2.51096 14.731 1.08699C14.6615 0.735158 14.6241 0.372078 14.6205 0H10.9036V10.2616L10.8992 15.8824C10.8992 17.3851 9.93066 18.6592 8.58809 19.1074C8.19845 19.2374 7.77764 19.299 7.33947 19.2747C6.78018 19.2437 6.25606 19.0732 5.80053 18.7978C4.83111 18.212 4.17386 17.1493 4.15604 15.9337C4.12799 14.0337 5.64823 12.4846 7.52739 12.4846C7.89832 12.4846 8.25456 12.5458 8.58809 12.6569V9.85219V8.84394C8.2363 8.7913 7.87828 8.76385 7.51625 8.76385C5.45943 8.76385 3.53575 9.62769 2.16067 11.1839C1.12135 12.36 0.497929 13.8605 0.401745 15.4338C0.275726 17.5007 1.02427 19.4655 2.47594 20.9151C2.68924 21.1279 2.91322 21.3254 3.14745 21.5076C4.39205 22.4754 5.91363 23 7.51625 23C7.87828 23 8.2363 22.973 8.58809 22.9204C10.0852 22.6963 11.4665 22.0039 12.5566 20.9151C13.896 19.5775 14.6361 17.8017 14.6441 15.9116L14.625 7.51805C15.264 8.0161 15.9626 8.42822 16.7125 8.74811C17.8788 9.24526 19.1154 9.49721 20.388 9.49676V6.76984V5.75799C20.3889 5.75889 20.3782 5.75889 20.3773 5.75889Z" fill="#EBBC13"/>
</svg>