<svg xmlns="http://www.w3.org/2000/svg" width="13" height="16" viewBox="0 0 13 16" fill="none">
  <path d="M3.84683 9.10254C3.86353 9.87466 5.00806 10.4982 6.41803 10.4982C7.82799 10.4982 8.9727 9.87466 8.9894 9.10254C11.1463 9.29979 12.8359 11.1128 12.8359 13.3206C12.8358 15.6605 10.9391 15.6547 8.5996 15.6547H4.23628C1.89694 15.6547 0.000114441 15.6605 0.000114441 13.3206C0.00028801 11.1128 1.68909 9.29979 3.84683 9.10254Z" fill="#EBBC13"/>
  <path d="M9.97864 6.16917C9.88371 6.19487 9.78581 6.20797 9.68747 6.20814H9.48778L9.48535 6.20796C9.06632 8.09801 7.85169 9.46484 6.41824 9.46484C5.13125 9.46484 4.02324 8.36066 3.50646 6.76753C3.26347 6.59533 3.06222 6.39791 2.91402 6.181C2.90236 6.17857 2.89002 6.17718 2.87819 6.17439C2.42177 6.06168 2.08467 5.67275 2.08467 5.20815V4.42333C2.08467 3.95925 2.42177 3.5698 2.87819 3.45743V3.33567C2.87801 1.49624 4.47149 0 6.42885 0C8.38621 0 9.97864 1.49642 9.97864 3.33585V3.4623C10.4245 3.58145 10.7515 3.96621 10.7515 4.4235V5.20815C10.7515 5.66544 10.4245 6.0502 9.97864 6.16917ZM6.41824 8.96911C7.85256 8.96911 9.03745 7.41129 9.22356 5.39079C9.09746 5.42245 8.94248 5.48367 8.77375 5.60143C8.77375 5.60108 9.09398 3.6999 8.41769 3.43308C8.41769 3.43308 7.48485 3.8862 6.41841 3.91524C5.35181 3.8862 4.41861 3.43308 4.41861 3.43308C3.74268 3.6999 4.06325 5.60108 4.06325 5.60143C3.89661 5.48524 3.74441 5.42453 3.61935 5.39253V5.43827C3.63997 5.64513 3.67196 5.85069 3.71519 6.05403C4.15665 6.45339 4.91521 6.74127 5.78614 6.79467C5.86892 6.72322 5.97457 6.68378 6.08392 6.68352H6.69968C6.82266 6.68352 6.94062 6.73238 7.02758 6.81934C7.11455 6.90631 7.1634 7.02426 7.1634 7.14725C7.1634 7.27024 7.11455 7.38819 7.02758 7.47515C6.94062 7.56212 6.82266 7.61097 6.69968 7.61097H6.08392C5.95886 7.61097 5.84615 7.56105 5.76248 7.48052C5.11768 7.44451 4.52906 7.29979 4.04046 7.07454C4.54402 8.21385 5.42017 8.96911 6.41824 8.96911ZM6.42885 0.696287C5.0034 0.696287 3.82617 1.69871 3.64579 2.99214C4.21388 2.00467 5.24118 1.343 6.41807 1.343C7.61391 1.343 8.65704 2.02589 9.21887 3.04032C9.06197 1.72358 7.87117 0.696287 6.42885 0.696287Z" fill="#EBBC13"/>
</svg>