<svg xmlns="http://www.w3.org/2000/svg" width="22" height="22" viewBox="0 0 22 22" fill="none">
  <path d="M15.6567 12.6289L15.6488 12.6951C13.7077 11.7277 13.5047 11.5988 13.254 11.9748C13.0802 12.2352 12.5735 12.8257 12.4208 13.0005C12.2663 13.1726 12.1127 13.1859 11.8506 13.0667C11.5858 12.9343 10.7357 12.6562 9.72947 11.7559C8.94564 11.0542 8.41956 10.1935 8.26421 9.92874C8.00558 9.4821 8.54667 9.41854 9.03921 8.48642C9.12748 8.30106 9.08246 8.15542 9.01714 8.0239C8.95094 7.89149 8.42398 6.59394 8.2033 6.07669C7.99146 5.5612 7.77343 5.62651 7.61014 5.62651C7.10171 5.58238 6.7301 5.58944 6.40262 5.93016C4.97796 7.49605 5.33722 9.11137 6.55621 10.8291C8.95182 13.9644 10.2282 14.5417 12.562 15.3431C13.1923 15.5435 13.7669 15.5153 14.2215 15.45C14.7281 15.3696 15.7812 14.8135 16.001 14.1912C16.2261 13.5689 16.2261 13.0526 16.1599 12.9334C16.0945 12.8142 15.9215 12.748 15.6567 12.6289Z" fill="#EBBC13"/>
  <path d="M18.3163 3.04477C11.5293 -3.51625 0.297087 1.24232 0.292673 10.4982C0.292673 12.3483 0.777269 14.1525 1.70056 15.7458L0.203522 21.1849L5.79535 19.7267C12.773 23.4958 21.3845 18.4909 21.388 10.5035C21.388 7.70007 20.2935 5.06172 18.303 3.0792L18.3163 3.04477ZM19.6244 10.4744C19.6191 17.2119 12.2231 21.4197 6.37351 17.9807L6.05574 17.7918L2.74566 18.6525L3.63277 15.4351L3.4218 15.1041C-0.218403 9.30921 3.96377 1.73575 10.8593 1.73575C13.202 1.73575 15.4008 2.64933 17.0567 4.30437C18.7117 5.94529 19.6244 8.14406 19.6244 10.4744Z" fill="#EBBC13"/>
</svg>