<svg xmlns="http://www.w3.org/2000/svg" width="28" height="28" viewBox="0 0 28 28" fill="white">
  <path d="M25.2872 7.51741C25.1555 7.29218 24.8651 7.21576 24.6387 7.34672L22.3224 8.67841C22.0959 8.80936 22.0191 9.09818 22.1508 9.32341C22.2824 9.54864 22.5728 9.62506 22.7993 9.49411L25.1156 8.16241C25.342 8.03139 25.4189 7.74264 25.2872 7.51741Z" fill="white" stroke="white" stroke-width="0.5"/>
  <path d="M25.1156 19.8405L22.7993 18.5088C22.5728 18.3779 22.2824 18.4543 22.1508 18.6795C22.0191 18.9047 22.0959 19.1936 22.3224 19.3245L24.6387 20.6562C24.8651 20.7872 25.1555 20.7107 25.2872 20.4855C25.4189 20.2602 25.342 19.9715 25.1156 19.8405Z" fill="white" stroke="white" stroke-width="0.5"/>
  <path d="M14.0376 23.3216C13.7749 23.3022 13.5462 23.4983 13.5267 23.7595C13.525 23.7829 13.525 23.8064 13.5267 23.8298V26.4905C13.5072 26.7518 13.7043 26.9792 13.967 26.9987C14.2297 27.0181 14.4583 26.822 14.4779 26.5608C14.4796 26.5374 14.4796 26.5139 14.4779 26.4905V23.8298C14.4973 23.5686 14.3002 23.3411 14.0376 23.3216Z" fill="white" stroke="white" stroke-width="0.5"/>
  <path d="M5.67807 8.67841L3.36178 7.34672C3.13533 7.21576 2.84494 7.29218 2.71327 7.51741C2.58161 7.74264 2.65845 8.03146 2.8849 8.16241L5.20119 9.49411C5.42764 9.62506 5.71803 9.54864 5.8497 9.32341C5.98136 9.09811 5.90453 8.80936 5.67807 8.67841Z" fill="white" stroke="white" stroke-width="0.5"/>
  <path d="M14.0376 1.00133C13.7749 0.981911 13.5462 1.17795 13.5267 1.43921C13.5249 1.4626 13.5249 1.48605 13.5267 1.50944V4.17022C13.5282 4.43011 13.7397 4.64049 14.001 4.64192C14.2644 4.64192 14.4779 4.42959 14.4779 4.16762V1.50951C14.4973 1.24825 14.3002 1.02074 14.0376 1.00133Z" fill="white" stroke="white" stroke-width="0.5"/>
  <path d="M9.4669 5.24939L8.13058 2.94563C7.99891 2.72041 7.70852 2.64398 7.48207 2.77494C7.25561 2.90589 7.17878 3.19471 7.31044 3.41994L8.64676 5.72369C8.77843 5.94892 9.06882 6.02534 9.29527 5.89439C9.52173 5.76337 9.59856 5.47462 9.4669 5.24939Z" fill="white" stroke="white" stroke-width="0.5"/>
  <path d="M26.9983 13.9636C26.9809 13.7294 26.7936 13.5431 26.5581 13.5257H23.8828C23.6201 13.5063 23.3915 13.7024 23.3719 13.9636C23.3524 14.2249 23.5495 14.4523 23.8122 14.4717C23.8357 14.4735 23.8594 14.4735 23.8829 14.4717H26.5581C26.8208 14.4524 27.0179 14.2249 26.9983 13.9636Z" fill="white" stroke="white" stroke-width="0.5"/>
  <path d="M4.18747 13.5282C4.16396 13.5264 4.14038 13.5264 4.11686 13.5282H1.4416C1.17892 13.5476 0.981813 13.7751 1.00133 14.0363C1.01882 14.2705 1.20604 14.4568 1.4416 14.4742H4.11686C4.37954 14.4936 4.60822 14.2975 4.62774 14.0363C4.64726 13.775 4.45015 13.5475 4.18747 13.5282Z" fill="white" stroke="white" stroke-width="0.5"/>
  <path d="M7.45309 13.9989C7.45309 13.9992 7.45309 13.9996 7.45309 13.9999L7.45309 13.9989ZM7.45309 13.9989C7.45309 13.9989 7.45309 13.9989 7.45309 13.9989ZM18.2768 18.2607C15.9151 20.6096 12.0861 20.6096 9.72437 18.2607M10.2244 9.74675V8.74178C11.2888 7.98459 12.5929 7.53887 14.0025 7.53906C17.5942 7.53955 20.5007 10.4351 20.5002 14.0007C20.5 15.7873 19.77 17.4054 18.5897 18.5753L17.9242 17.9062C15.7576 20.0611 12.2436 20.0611 10.077 17.9062C9.03512 16.87 8.45117 15.4647 8.45309 14.0005L8.45309 13.9991C8.45099 12.5374 9.03494 11.1347 10.0765 10.1018L9.73213 9.75457H10.2244V9.74675ZM7.95309 13.9998L7.50293 13.9992V14.0005L7.95309 13.9998ZM9.05359 18.9227C10.3643 20.2295 12.1447 20.963 14.0006 20.9606C17.8658 20.9611 20.9997 17.8451 21.0002 14.0008C21.0008 10.1565 17.8678 7.03958 14.0026 7.03906C10.1373 7.03854 7.00352 10.1545 7.00293 13.9989C7.00267 15.8457 7.7404 17.617 9.05359 18.9227Z" fill="white" stroke="white"/>
  <path d="M20.6905 24.583C20.6901 24.5823 20.6897 24.5816 20.6892 24.5809L19.3503 22.2772C19.2186 22.0519 18.9282 21.9755 18.7018 22.1065C18.4753 22.2374 18.3985 22.5263 18.5302 22.7515L19.8691 25.0552C20.0003 25.2802 20.2898 25.3571 20.5163 25.2272C20.7433 25.0971 20.8213 24.8087 20.6905 24.583Z" fill="white" stroke="white" stroke-width="0.5"/>
  <path d="M20.5337 2.77494C20.3073 2.64398 20.0169 2.72041 19.8852 2.94563L18.5463 5.24939C18.4137 5.47409 18.4894 5.76311 18.7153 5.89491C18.7157 5.89517 18.7161 5.89543 18.7166 5.89569C18.9428 6.0269 19.2332 5.95087 19.3651 5.72577C19.3655 5.72506 19.366 5.72434 19.3664 5.72369L20.7053 3.41994C20.837 3.19464 20.7602 2.90589 20.5337 2.77494Z" fill="white" stroke="white" stroke-width="0.5"/>
  <path d="M9.29789 22.1065C9.07144 21.9755 8.78105 22.0519 8.64938 22.2772L7.31044 24.5809C7.17878 24.8062 7.25561 25.095 7.48207 25.2259C7.70852 25.3569 7.99891 25.2805 8.13058 25.0552L9.46952 22.7515C9.60118 22.5262 9.52435 22.2374 9.29789 22.1065Z" fill="white" stroke="white" stroke-width="0.5"/>
  <path d="M5.8497 18.6766C5.71803 18.4514 5.42764 18.3749 5.20119 18.5059L2.8849 19.8376C2.65845 19.9685 2.58161 20.2574 2.71327 20.4826C2.84494 20.7078 3.13533 20.7842 3.36178 20.6533L5.67807 19.3216C5.90453 19.1906 5.98136 18.9018 5.8497 18.6766Z" fill="white" stroke="white" stroke-width="0.5"/>
</svg>