<svg width="10" height="6" viewBox="0 0 10 6" fill="none" xmlns="http://www.w3.org/2000/svg">
<path fill-rule="evenodd" clip-rule="evenodd" d="M0.1699 0.147358H0.162222C0.308109 -0.024715 0.553813 -0.0247148 0.6997 0.138755L5.03024 4.99122L9.36078 0.130151H9.35311C9.49899 -0.0419223 9.7447 -0.0419221 9.89058 0.121548C10.0365 0.285017 10.0365 0.560334 9.89058 0.723804L5.28363 5.886V5.8774C5.13006 6.04087 4.88436 6.04087 4.73847 5.8774C4.73079 5.86879 4.73079 5.86879 4.73079 5.86879L0.123831 0.706596L0.116152 0.697993C-0.037413 0.525919 -0.0374131 0.250603 0.108474 0.0871329C0.108474 0.0785292 0.108474 0.078529 0.108474 0.078529L0.1699 0.147358Z" fill="white"/>
</svg>
