<svg xmlns="http://www.w3.org/2000/svg" width="25" height="18" viewBox="0 0 25 18" fill="none">
  <path d="M24.1283 2.57189L24.1583 2.77942C23.8683 1.6899 23.0853 0.849191 22.0903 0.543191L22.0693 0.537897C20.1984 1.45155e-05 12.6694 1.4633e-05 12.6694 1.4633e-05C12.6694 1.4633e-05 5.15954 -0.0105737 3.26956 0.537897C2.25558 0.84919 1.47159 1.6899 1.18659 2.75719L1.18159 2.77942C0.482598 6.64519 0.477598 11.2902 1.21259 15.4292L1.18159 15.2195C1.47159 16.3091 2.25458 17.1498 3.24956 17.4558L3.27056 17.4611C5.13954 18 12.6704 18 12.6704 18C12.6704 18 20.1794 18 22.0703 17.4611C23.0853 17.1498 23.8693 16.3091 24.1543 15.2418L24.1593 15.2195C24.4773 13.4217 24.6593 11.3527 24.6593 9.2393C24.6593 9.16201 24.6593 9.08365 24.6583 9.0053C24.6593 8.9333 24.6593 8.84754 24.6593 8.76177C24.6593 6.6473 24.4773 4.57836 24.1283 2.57189ZM10.2675 12.8658V5.14378L16.5334 9.0106L10.2675 12.8658Z" fill="#EBBC13"/>
</svg>